<?xml version="1.0" encoding="utf-8"?>
<!-- Generator: Adobe Illustrator 17.0.0, SVG Export Plug-In . SVG Version: 6.00 Build 0)  -->
<!DOCTYPE svg PUBLIC "-//W3C//DTD SVG 1.1//EN" "http://www.w3.org/Graphics/SVG/1.1/DTD/svg11.dtd">
<svg version="1.1" id="Layer_1" xmlns="http://www.w3.org/2000/svg" xmlns:xlink="http://www.w3.org/1999/xlink" x="0px" y="0px"
	 width="1000px" height="1000px" viewBox="0 0 1000 1000" enable-background="new 0 0 1000 1000" xml:space="preserve">
<g>
	<line fill="none" stroke="#CECECE" stroke-miterlimit="10" x1="261.129" y1="46" x2="261.129" y2="425.288"/>
	<line fill="none" stroke="#CECECE" stroke-miterlimit="10" x1="360.446" y1="46" x2="360.446" y2="425.288"/>
	<line fill="none" stroke="#CECECE" stroke-miterlimit="10" x1="459.763" y1="46" x2="459.763" y2="425.288"/>
	<line fill="none" stroke="#CECECE" stroke-miterlimit="10" x1="558.224" y1="46" x2="558.224" y2="425.288"/>
	<line fill="none" stroke="#CECECE" stroke-miterlimit="10" x1="657.54" y1="46" x2="657.54" y2="425.288"/>
	<line fill="none" stroke="#CECECE" stroke-miterlimit="10" x1="756.857" y1="46" x2="756.857" y2="425.288"/>
	<line fill="none" stroke="#CECECE" stroke-miterlimit="10" x1="856.174" y1="46" x2="856.174" y2="425.288"/>
	<line fill="none" stroke="#CECECE" stroke-miterlimit="10" x1="881.86" y1="109.357" x2="158.388" y2="109.357"/>
	<line fill="none" stroke="#CECECE" stroke-miterlimit="10" x1="881.86" y1="171.858" x2="158.388" y2="171.858"/>
	<line fill="none" stroke="#CECECE" stroke-miterlimit="10" x1="881.86" y1="235.644" x2="158.388" y2="235.644"/>
	<line fill="none" stroke="#CECECE" stroke-miterlimit="10" x1="881.86" y1="300.145" x2="158.388" y2="300.145"/>
	<line fill="none" stroke="#CECECE" stroke-miterlimit="10" x1="881.86" y1="362.787" x2="158.388" y2="362.787"/>
</g>
<path fill="#FFFFFF" stroke="#FFFFFF" stroke-miterlimit="10" d="M134.388,347.333"/>
<linearGradient id="SVGID_1_" gradientUnits="userSpaceOnUse" x1="159.5287" y1="216.0052" x2="881.9664" y2="216.0052">
	<stop  offset="0.0054" style="stop-color:#04F3FF"/>
	<stop  offset="1" style="stop-color:#6097F7"/>
</linearGradient>
<polyline fill="none" stroke="url(#SVGID_1_)" stroke-width="15" stroke-miterlimit="10" points="160.956,98 179.792,101.652 
	214.896,135.043 239.725,154.735 261.985,154.735 280.821,159.872 316.781,185.557 340.754,185.557 363.015,192.696 
	379.282,196.688 398.118,220.661 419.522,220.661 439.215,220.661 458.051,235.216 476.03,245.49 494.438,252.313 517.983,252.313 
	557.367,261.757 577.06,252.313 597.608,252.313 675.52,296.004 696.069,288.295 735.453,291.724 752.576,308.136 791.961,332.82 
	815.078,321.69 833.914,327.683 881.86,327 "/>
<line fill="none" stroke="#000000" stroke-width="5" stroke-miterlimit="10" x1="881.86" y1="46.856" x2="158.388" y2="46.856"/>
<g>
	<path d="M144.101,435.549v18.973h-4.734V444.35c0-1.469-0.035-2.352-0.105-2.648s-0.264-0.521-0.58-0.674s-1.021-0.229-2.115-0.229
		h-0.469v-2.212c2.289-0.492,4.027-1.505,5.215-3.038H144.101z"/>
	<path d="M145.94,449.482h4.734c0,0.883,0.012,1.439,0.035,1.67s0.119,0.424,0.287,0.58s0.396,0.234,0.686,0.234
		c0.242,0,0.441-0.074,0.598-0.223s0.244-0.34,0.264-0.574s0.029-0.707,0.029-1.418v-3.023c-0.234,0.508-0.586,0.889-1.055,1.143
		s-1.051,0.381-1.746,0.381c-0.867,0-1.633-0.234-2.297-0.703s-1.086-1.031-1.266-1.688s-0.27-1.543-0.27-2.66v-1.512
		c0-1.328,0.053-2.316,0.158-2.965s0.377-1.248,0.814-1.799s1.043-0.979,1.816-1.283s1.672-0.457,2.695-0.457
		c1.266,0,2.305,0.176,3.117,0.527s1.441,0.857,1.887,1.518s0.703,1.354,0.773,2.08s0.105,2.133,0.105,4.219v2.637
		c0,2.258-0.031,3.768-0.094,4.529s-0.334,1.482-0.814,2.162s-1.131,1.189-1.951,1.529s-1.77,0.51-2.848,0.51
		c-1.336,0-2.428-0.215-3.275-0.645s-1.457-1.035-1.828-1.816S145.94,450.67,145.94,449.482z M150.675,443.564
		c0,0.797,0.104,1.289,0.311,1.477s0.42,0.281,0.639,0.281c0.328,0,0.568-0.119,0.721-0.357s0.229-0.705,0.229-1.4v-3.434
		c0-0.836-0.072-1.383-0.217-1.641s-0.385-0.387-0.721-0.387c-0.203,0-0.414,0.1-0.633,0.299s-0.328,0.736-0.328,1.611V443.564z"/>
	<path d="M167.972,443.758c0.695,0.281,1.23,0.701,1.605,1.261c0.375,0.559,0.562,1.89,0.562,3.992c0,1.532-0.148,2.661-0.445,3.389
		c-0.297,0.727-0.875,1.322-1.734,1.788c-0.859,0.465-2.012,0.697-3.457,0.697c-1.406,0-2.52-0.223-3.34-0.668
		c-0.82-0.446-1.408-1.036-1.764-1.771c-0.355-0.735-0.533-1.958-0.533-3.67c0-1.149,0.088-2.146,0.264-2.99
		c0.176-0.844,0.729-1.521,1.658-2.028c-0.586-0.281-1.025-0.728-1.318-1.341s-0.439-1.392-0.439-2.336
		c0-1.632,0.453-2.855,1.359-3.672c0.906-0.815,2.262-1.224,4.066-1.224c2.086,0,3.527,0.434,4.324,1.3s1.195,2.104,1.195,3.712
		c0,1.023-0.131,1.761-0.393,2.214S168.784,443.312,167.972,443.758z M165.405,447.572c0-0.727-0.074-1.209-0.223-1.447
		s-0.383-0.357-0.703-0.357c-0.312,0-0.537,0.115-0.674,0.346s-0.205,0.717-0.205,1.459v2.461c0,0.82,0.076,1.348,0.229,1.582
		s0.393,0.352,0.721,0.352c0.336,0,0.562-0.119,0.68-0.357s0.176-0.775,0.176-1.611V447.572z M165.312,439.686
		c0-0.641-0.057-1.064-0.17-1.271s-0.33-0.311-0.65-0.311c-0.312,0-0.523,0.111-0.633,0.334s-0.164,0.639-0.164,1.248v1.441
		c0,0.57,0.062,0.965,0.188,1.184s0.336,0.328,0.633,0.328c0.312,0,0.523-0.107,0.633-0.322s0.164-0.658,0.164-1.33V439.686z"/>
	<path d="M182.937,441.971v6.328c0,1.438-0.078,2.484-0.234,3.141s-0.48,1.27-0.973,1.84s-1.086,0.98-1.781,1.23
		s-1.473,0.375-2.332,0.375c-1.133,0-2.074-0.131-2.824-0.393s-1.348-0.67-1.793-1.225s-0.762-1.139-0.949-1.752
		s-0.281-1.588-0.281-2.924v-6.621c0-1.742,0.15-3.047,0.451-3.914s0.898-1.562,1.793-2.086s1.979-0.785,3.252-0.785
		c1.039,0,1.969,0.182,2.789,0.545s1.434,0.807,1.84,1.33s0.682,1.113,0.826,1.77S182.937,440.533,182.937,441.971z
		 M178.202,440.377c0-1.008-0.049-1.639-0.146-1.893s-0.326-0.381-0.686-0.381c-0.352,0-0.584,0.135-0.697,0.404
		s-0.17,0.893-0.17,1.869v9.258c0,1.102,0.053,1.766,0.158,1.992s0.334,0.34,0.686,0.34s0.582-0.133,0.691-0.398
		s0.164-0.863,0.164-1.793V440.377z"/>
</g>
<g>
	<path d="M244.101,435.549v18.973h-4.734V444.35c0-1.469-0.035-2.352-0.105-2.648s-0.264-0.521-0.58-0.674s-1.021-0.229-2.115-0.229
		h-0.469v-2.212c2.289-0.492,4.027-1.505,5.215-3.038H244.101z"/>
	<path d="M245.94,449.482h4.734c0,0.883,0.012,1.439,0.035,1.67s0.119,0.424,0.287,0.58s0.396,0.234,0.686,0.234
		c0.242,0,0.441-0.074,0.598-0.223s0.244-0.34,0.264-0.574s0.029-0.707,0.029-1.418v-3.023c-0.234,0.508-0.586,0.889-1.055,1.143
		s-1.051,0.381-1.746,0.381c-0.867,0-1.633-0.234-2.297-0.703s-1.086-1.031-1.266-1.688s-0.27-1.543-0.27-2.66v-1.512
		c0-1.328,0.053-2.316,0.158-2.965s0.377-1.248,0.814-1.799s1.043-0.979,1.816-1.283s1.672-0.457,2.695-0.457
		c1.266,0,2.305,0.176,3.117,0.527s1.441,0.857,1.887,1.518s0.703,1.354,0.773,2.08s0.105,2.133,0.105,4.219v2.637
		c0,2.258-0.031,3.768-0.094,4.529s-0.334,1.482-0.814,2.162s-1.131,1.189-1.951,1.529s-1.77,0.51-2.848,0.51
		c-1.336,0-2.428-0.215-3.275-0.645s-1.457-1.035-1.828-1.816S245.94,450.67,245.94,449.482z M250.675,443.564
		c0,0.797,0.104,1.289,0.311,1.477s0.42,0.281,0.639,0.281c0.328,0,0.568-0.119,0.721-0.357s0.229-0.705,0.229-1.4v-3.434
		c0-0.836-0.072-1.383-0.217-1.641s-0.385-0.387-0.721-0.387c-0.203,0-0.414,0.1-0.633,0.299s-0.328,0.736-0.328,1.611V443.564z"/>
	<path d="M267.972,443.758c0.695,0.281,1.23,0.701,1.605,1.261c0.375,0.559,0.562,1.89,0.562,3.992c0,1.532-0.148,2.661-0.445,3.389
		c-0.297,0.727-0.875,1.322-1.734,1.788c-0.859,0.465-2.012,0.697-3.457,0.697c-1.406,0-2.52-0.223-3.34-0.668
		c-0.82-0.446-1.408-1.036-1.764-1.771c-0.355-0.735-0.533-1.958-0.533-3.67c0-1.149,0.088-2.146,0.264-2.99
		c0.176-0.844,0.729-1.521,1.658-2.028c-0.586-0.281-1.025-0.728-1.318-1.341s-0.439-1.392-0.439-2.336
		c0-1.632,0.453-2.855,1.359-3.672c0.906-0.815,2.262-1.224,4.066-1.224c2.086,0,3.527,0.434,4.324,1.3s1.195,2.104,1.195,3.712
		c0,1.023-0.131,1.761-0.393,2.214S268.784,443.312,267.972,443.758z M265.405,447.572c0-0.727-0.074-1.209-0.223-1.447
		s-0.383-0.357-0.703-0.357c-0.312,0-0.537,0.115-0.674,0.346s-0.205,0.717-0.205,1.459v2.461c0,0.82,0.076,1.348,0.229,1.582
		s0.393,0.352,0.721,0.352c0.336,0,0.562-0.119,0.68-0.357s0.176-0.775,0.176-1.611V447.572z M265.312,439.686
		c0-0.641-0.057-1.064-0.17-1.271s-0.33-0.311-0.65-0.311c-0.312,0-0.523,0.111-0.633,0.334s-0.164,0.639-0.164,1.248v1.441
		c0,0.57,0.062,0.965,0.188,1.184s0.336,0.328,0.633,0.328c0.312,0,0.523-0.107,0.633-0.322s0.164-0.658,0.164-1.33V439.686z"/>
	<path d="M282.104,435.549v3.035h-5.871v3.223c0.734-0.867,1.68-1.301,2.836-1.301c1.305,0,2.291,0.365,2.959,1.096
		s1.002,2.135,1.002,4.213v2.707c0,1.344-0.064,2.33-0.193,2.959s-0.404,1.211-0.826,1.746s-1.01,0.945-1.764,1.23
		s-1.674,0.428-2.76,0.428c-1.219,0-2.293-0.213-3.223-0.639s-1.59-1.061-1.98-1.904s-0.586-2.148-0.586-3.914v-1.031h4.734v1.184
		c0,1.227,0.043,2.098,0.129,2.613s0.383,0.773,0.891,0.773c0.234,0,0.424-0.074,0.568-0.223s0.223-0.309,0.234-0.48
		s0.025-0.918,0.041-2.238v-3.762c0-0.711-0.074-1.195-0.223-1.453s-0.395-0.387-0.738-0.387c-0.219,0-0.402,0.066-0.551,0.199
		s-0.244,0.275-0.287,0.428s-0.064,0.506-0.064,1.061h-4.688l0.199-9.562H282.104z"/>
</g>
<g>
	<path d="M344.101,435.549v18.973h-4.734V444.35c0-1.469-0.035-2.352-0.105-2.648s-0.264-0.521-0.58-0.674s-1.021-0.229-2.115-0.229
		h-0.469v-2.212c2.289-0.492,4.027-1.505,5.215-3.038H344.101z"/>
	<path d="M345.94,449.482h4.734c0,0.883,0.012,1.439,0.035,1.67s0.119,0.424,0.287,0.58s0.396,0.234,0.686,0.234
		c0.242,0,0.441-0.074,0.598-0.223s0.244-0.34,0.264-0.574s0.029-0.707,0.029-1.418v-3.023c-0.234,0.508-0.586,0.889-1.055,1.143
		s-1.051,0.381-1.746,0.381c-0.867,0-1.633-0.234-2.297-0.703s-1.086-1.031-1.266-1.688s-0.27-1.543-0.27-2.66v-1.512
		c0-1.328,0.053-2.316,0.158-2.965s0.377-1.248,0.814-1.799s1.043-0.979,1.816-1.283s1.672-0.457,2.695-0.457
		c1.266,0,2.305,0.176,3.117,0.527s1.441,0.857,1.887,1.518s0.703,1.354,0.773,2.08s0.105,2.133,0.105,4.219v2.637
		c0,2.258-0.031,3.768-0.094,4.529s-0.334,1.482-0.814,2.162s-1.131,1.189-1.951,1.529s-1.77,0.51-2.848,0.51
		c-1.336,0-2.428-0.215-3.275-0.645s-1.457-1.035-1.828-1.816S345.94,450.67,345.94,449.482z M350.675,443.564
		c0,0.797,0.104,1.289,0.311,1.477s0.42,0.281,0.639,0.281c0.328,0,0.568-0.119,0.721-0.357s0.229-0.705,0.229-1.4v-3.434
		c0-0.836-0.072-1.383-0.217-1.641s-0.385-0.387-0.721-0.387c-0.203,0-0.414,0.1-0.633,0.299s-0.328,0.736-0.328,1.611V443.564z"/>
	<path d="M358.937,449.482h4.734c0,0.883,0.012,1.439,0.035,1.67s0.119,0.424,0.287,0.58s0.396,0.234,0.686,0.234
		c0.242,0,0.441-0.074,0.598-0.223s0.244-0.34,0.264-0.574s0.029-0.707,0.029-1.418v-3.023c-0.234,0.508-0.586,0.889-1.055,1.143
		s-1.051,0.381-1.746,0.381c-0.867,0-1.633-0.234-2.297-0.703s-1.086-1.031-1.266-1.688s-0.27-1.543-0.27-2.66v-1.512
		c0-1.328,0.053-2.316,0.158-2.965s0.377-1.248,0.814-1.799s1.043-0.979,1.816-1.283s1.672-0.457,2.695-0.457
		c1.266,0,2.305,0.176,3.117,0.527s1.441,0.857,1.887,1.518s0.703,1.354,0.773,2.08s0.105,2.133,0.105,4.219v2.637
		c0,2.258-0.031,3.768-0.094,4.529s-0.334,1.482-0.814,2.162s-1.131,1.189-1.951,1.529s-1.77,0.51-2.848,0.51
		c-1.336,0-2.428-0.215-3.275-0.645s-1.457-1.035-1.828-1.816S358.937,450.67,358.937,449.482z M363.671,443.564
		c0,0.797,0.104,1.289,0.311,1.477s0.42,0.281,0.639,0.281c0.328,0,0.568-0.119,0.721-0.357s0.229-0.705,0.229-1.4v-3.434
		c0-0.836-0.072-1.383-0.217-1.641s-0.385-0.387-0.721-0.387c-0.203,0-0.414,0.1-0.633,0.299s-0.328,0.736-0.328,1.611V443.564z"/>
	<path d="M383.101,441.971v6.328c0,1.438-0.078,2.484-0.234,3.141s-0.48,1.27-0.973,1.84s-1.086,0.98-1.781,1.23
		s-1.473,0.375-2.332,0.375c-1.133,0-2.074-0.131-2.824-0.393s-1.348-0.67-1.793-1.225s-0.762-1.139-0.949-1.752
		s-0.281-1.588-0.281-2.924v-6.621c0-1.742,0.15-3.047,0.451-3.914s0.898-1.562,1.793-2.086s1.979-0.785,3.252-0.785
		c1.039,0,1.969,0.182,2.789,0.545s1.434,0.807,1.84,1.33s0.682,1.113,0.826,1.77S383.101,440.533,383.101,441.971z
		 M378.366,440.377c0-1.008-0.049-1.639-0.146-1.893s-0.326-0.381-0.686-0.381c-0.352,0-0.584,0.135-0.697,0.404
		s-0.17,0.893-0.17,1.869v9.258c0,1.102,0.053,1.766,0.158,1.992s0.334,0.34,0.686,0.34s0.582-0.133,0.691-0.398
		s0.164-0.863,0.164-1.793V440.377z"/>
</g>
<g>
	<path d="M443.101,435.549v18.973h-4.734V444.35c0-1.469-0.035-2.352-0.105-2.648s-0.264-0.521-0.58-0.674s-1.021-0.229-2.115-0.229
		h-0.469v-2.212c2.289-0.492,4.027-1.505,5.215-3.038H443.101z"/>
	<path d="M444.94,449.482h4.734c0,0.883,0.012,1.439,0.035,1.67s0.119,0.424,0.287,0.58s0.396,0.234,0.686,0.234
		c0.242,0,0.441-0.074,0.598-0.223s0.244-0.34,0.264-0.574s0.029-0.707,0.029-1.418v-3.023c-0.234,0.508-0.586,0.889-1.055,1.143
		s-1.051,0.381-1.746,0.381c-0.867,0-1.633-0.234-2.297-0.703s-1.086-1.031-1.266-1.688s-0.27-1.543-0.27-2.66v-1.512
		c0-1.328,0.053-2.316,0.158-2.965s0.377-1.248,0.814-1.799s1.043-0.979,1.816-1.283s1.672-0.457,2.695-0.457
		c1.266,0,2.305,0.176,3.117,0.527s1.441,0.857,1.887,1.518s0.703,1.354,0.773,2.08s0.105,2.133,0.105,4.219v2.637
		c0,2.258-0.031,3.768-0.094,4.529s-0.334,1.482-0.814,2.162s-1.131,1.189-1.951,1.529s-1.77,0.51-2.848,0.51
		c-1.336,0-2.428-0.215-3.275-0.645s-1.457-1.035-1.828-1.816S444.94,450.67,444.94,449.482z M449.675,443.564
		c0,0.797,0.104,1.289,0.311,1.477s0.42,0.281,0.639,0.281c0.328,0,0.568-0.119,0.721-0.357s0.229-0.705,0.229-1.4v-3.434
		c0-0.836-0.072-1.383-0.217-1.641s-0.385-0.387-0.721-0.387c-0.203,0-0.414,0.1-0.633,0.299s-0.328,0.736-0.328,1.611V443.564z"/>
	<path d="M466.972,443.758c0.695,0.281,1.23,0.701,1.605,1.261c0.375,0.559,0.562,1.89,0.562,3.992c0,1.532-0.148,2.661-0.445,3.389
		c-0.297,0.727-0.875,1.322-1.734,1.788c-0.859,0.465-2.012,0.697-3.457,0.697c-1.406,0-2.52-0.223-3.34-0.668
		c-0.82-0.446-1.408-1.036-1.764-1.771c-0.355-0.735-0.533-1.958-0.533-3.67c0-1.149,0.088-2.146,0.264-2.99
		c0.176-0.844,0.729-1.521,1.658-2.028c-0.586-0.281-1.025-0.728-1.318-1.341s-0.439-1.392-0.439-2.336
		c0-1.632,0.453-2.855,1.359-3.672c0.906-0.815,2.262-1.224,4.066-1.224c2.086,0,3.527,0.434,4.324,1.3s1.195,2.104,1.195,3.712
		c0,1.023-0.131,1.761-0.393,2.214S467.784,443.312,466.972,443.758z M464.405,447.572c0-0.727-0.074-1.209-0.223-1.447
		s-0.383-0.357-0.703-0.357c-0.312,0-0.537,0.115-0.674,0.346s-0.205,0.717-0.205,1.459v2.461c0,0.82,0.076,1.348,0.229,1.582
		s0.393,0.352,0.721,0.352c0.336,0,0.562-0.119,0.68-0.357s0.176-0.775,0.176-1.611V447.572z M464.312,439.686
		c0-0.641-0.057-1.064-0.17-1.271s-0.33-0.311-0.65-0.311c-0.312,0-0.523,0.111-0.633,0.334s-0.164,0.639-0.164,1.248v1.441
		c0,0.57,0.062,0.965,0.188,1.184s0.336,0.328,0.633,0.328c0.312,0,0.523-0.107,0.633-0.322s0.164-0.658,0.164-1.33V439.686z"/>
	<path d="M481.104,435.549v3.035h-5.871v3.223c0.734-0.867,1.68-1.301,2.836-1.301c1.305,0,2.291,0.365,2.959,1.096
		s1.002,2.135,1.002,4.213v2.707c0,1.344-0.064,2.33-0.193,2.959s-0.404,1.211-0.826,1.746s-1.01,0.945-1.764,1.23
		s-1.674,0.428-2.76,0.428c-1.219,0-2.293-0.213-3.223-0.639s-1.59-1.061-1.98-1.904s-0.586-2.148-0.586-3.914v-1.031h4.734v1.184
		c0,1.227,0.043,2.098,0.129,2.613s0.383,0.773,0.891,0.773c0.234,0,0.424-0.074,0.568-0.223s0.223-0.309,0.234-0.48
		s0.025-0.918,0.041-2.238v-3.762c0-0.711-0.074-1.195-0.223-1.453s-0.395-0.387-0.738-0.387c-0.219,0-0.402,0.066-0.551,0.199
		s-0.244,0.275-0.287,0.428s-0.064,0.506-0.064,1.061h-4.688l0.199-9.562H481.104z"/>
</g>
<g>
	<path d="M544.007,451.287v3.234h-10.418l0.003-2.707c3.086-5.047,4.92-8.17,5.502-9.369s0.873-2.135,0.873-2.807
		c0-0.516-0.088-0.9-0.264-1.154c-0.177-0.254-0.444-0.381-0.804-0.381c-0.36,0-0.628,0.141-0.804,0.422
		c-0.177,0.281-0.265,0.84-0.265,1.676v1.805h-4.242v-0.691c0-1.062,0.055-1.9,0.164-2.514s0.379-1.217,0.809-1.811
		s0.988-1.043,1.676-1.348s1.512-0.457,2.473-0.457c1.883,0,3.307,0.467,4.271,1.4s1.447,2.115,1.447,3.545
		c0,1.086-0.271,2.234-0.814,3.445s-2.143,3.781-4.799,7.711H544.007z"/>
	<path d="M557.015,441.971v6.328c0,1.438-0.078,2.484-0.234,3.141s-0.48,1.27-0.973,1.84s-1.086,0.98-1.781,1.23
		s-1.473,0.375-2.332,0.375c-1.133,0-2.074-0.131-2.824-0.393s-1.348-0.67-1.793-1.225s-0.762-1.139-0.949-1.752
		s-0.281-1.588-0.281-2.924v-6.621c0-1.742,0.15-3.047,0.451-3.914s0.898-1.562,1.793-2.086s1.979-0.785,3.252-0.785
		c1.039,0,1.969,0.182,2.789,0.545s1.434,0.807,1.84,1.33s0.682,1.113,0.826,1.77S557.015,440.533,557.015,441.971z M552.28,440.377
		c0-1.008-0.049-1.639-0.146-1.893s-0.326-0.381-0.686-0.381c-0.352,0-0.584,0.135-0.697,0.404s-0.17,0.893-0.17,1.869v9.258
		c0,1.102,0.053,1.766,0.158,1.992s0.334,0.34,0.686,0.34s0.582-0.133,0.691-0.398s0.164-0.863,0.164-1.793V440.377z"/>
	<path d="M569.882,441.971v6.328c0,1.438-0.078,2.484-0.234,3.141s-0.48,1.27-0.973,1.84s-1.086,0.98-1.781,1.23
		s-1.473,0.375-2.332,0.375c-1.133,0-2.074-0.131-2.824-0.393s-1.348-0.67-1.793-1.225s-0.762-1.139-0.949-1.752
		s-0.281-1.588-0.281-2.924v-6.621c0-1.742,0.15-3.047,0.451-3.914s0.898-1.562,1.793-2.086s1.979-0.785,3.252-0.785
		c1.039,0,1.969,0.182,2.789,0.545s1.434,0.807,1.84,1.33s0.682,1.113,0.826,1.77S569.882,440.533,569.882,441.971z
		 M565.147,440.377c0-1.008-0.049-1.639-0.146-1.893s-0.326-0.381-0.686-0.381c-0.352,0-0.584,0.135-0.697,0.404
		s-0.17,0.893-0.17,1.869v9.258c0,1.102,0.053,1.766,0.158,1.992s0.334,0.34,0.686,0.34s0.582-0.133,0.691-0.398
		s0.164-0.863,0.164-1.793V440.377z"/>
	<path d="M582.749,441.971v6.328c0,1.438-0.078,2.484-0.234,3.141s-0.48,1.27-0.973,1.84s-1.086,0.98-1.781,1.23
		s-1.473,0.375-2.332,0.375c-1.133,0-2.074-0.131-2.824-0.393s-1.348-0.67-1.793-1.225s-0.762-1.139-0.949-1.752
		s-0.281-1.588-0.281-2.924v-6.621c0-1.742,0.15-3.047,0.451-3.914s0.898-1.562,1.793-2.086s1.979-0.785,3.252-0.785
		c1.039,0,1.969,0.182,2.789,0.545s1.434,0.807,1.84,1.33s0.682,1.113,0.826,1.77S582.749,440.533,582.749,441.971z
		 M578.015,440.377c0-1.008-0.049-1.639-0.146-1.893s-0.326-0.381-0.686-0.381c-0.352,0-0.584,0.135-0.697,0.404
		s-0.17,0.893-0.17,1.869v9.258c0,1.102,0.053,1.766,0.158,1.992s0.334,0.34,0.686,0.34s0.582-0.133,0.691-0.398
		s0.164-0.863,0.164-1.793V440.377z"/>
</g>
<g>
	<path d="M643.007,451.287v3.234h-10.418l0.003-2.707c3.086-5.047,4.92-8.17,5.502-9.369s0.873-2.135,0.873-2.807
		c0-0.516-0.088-0.9-0.264-1.154c-0.177-0.254-0.444-0.381-0.804-0.381c-0.36,0-0.628,0.141-0.804,0.422
		c-0.177,0.281-0.265,0.84-0.265,1.676v1.805h-4.242v-0.691c0-1.062,0.055-1.9,0.164-2.514s0.379-1.217,0.809-1.811
		s0.988-1.043,1.676-1.348s1.512-0.457,2.473-0.457c1.883,0,3.307,0.467,4.271,1.4s1.447,2.115,1.447,3.545
		c0,1.086-0.271,2.234-0.814,3.445s-2.143,3.781-4.799,7.711H643.007z"/>
	<path d="M656.015,441.971v6.328c0,1.438-0.078,2.484-0.234,3.141s-0.48,1.27-0.973,1.84s-1.086,0.98-1.781,1.23
		s-1.473,0.375-2.332,0.375c-1.133,0-2.074-0.131-2.824-0.393s-1.348-0.67-1.793-1.225s-0.762-1.139-0.949-1.752
		s-0.281-1.588-0.281-2.924v-6.621c0-1.742,0.15-3.047,0.451-3.914s0.898-1.562,1.793-2.086s1.979-0.785,3.252-0.785
		c1.039,0,1.969,0.182,2.789,0.545s1.434,0.807,1.84,1.33s0.682,1.113,0.826,1.77S656.015,440.533,656.015,441.971z M651.28,440.377
		c0-1.008-0.049-1.639-0.146-1.893s-0.326-0.381-0.686-0.381c-0.352,0-0.584,0.135-0.697,0.404s-0.17,0.893-0.17,1.869v9.258
		c0,1.102,0.053,1.766,0.158,1.992s0.334,0.34,0.686,0.34s0.582-0.133,0.691-0.398s0.164-0.863,0.164-1.793V440.377z"/>
	<path d="M668.882,441.971v6.328c0,1.438-0.078,2.484-0.234,3.141s-0.48,1.27-0.973,1.84s-1.086,0.98-1.781,1.23
		s-1.473,0.375-2.332,0.375c-1.133,0-2.074-0.131-2.824-0.393s-1.348-0.67-1.793-1.225s-0.762-1.139-0.949-1.752
		s-0.281-1.588-0.281-2.924v-6.621c0-1.742,0.15-3.047,0.451-3.914s0.898-1.562,1.793-2.086s1.979-0.785,3.252-0.785
		c1.039,0,1.969,0.182,2.789,0.545s1.434,0.807,1.84,1.33s0.682,1.113,0.826,1.77S668.882,440.533,668.882,441.971z
		 M664.147,440.377c0-1.008-0.049-1.639-0.146-1.893s-0.326-0.381-0.686-0.381c-0.352,0-0.584,0.135-0.697,0.404
		s-0.17,0.893-0.17,1.869v9.258c0,1.102,0.053,1.766,0.158,1.992s0.334,0.34,0.686,0.34s0.582-0.133,0.691-0.398
		s0.164-0.863,0.164-1.793V440.377z"/>
	<path d="M680.917,435.549v3.035h-5.871v3.223c0.734-0.867,1.68-1.301,2.836-1.301c1.305,0,2.291,0.365,2.959,1.096
		s1.002,2.135,1.002,4.213v2.707c0,1.344-0.064,2.33-0.193,2.959s-0.404,1.211-0.826,1.746s-1.01,0.945-1.764,1.23
		s-1.674,0.428-2.76,0.428c-1.219,0-2.293-0.213-3.223-0.639s-1.59-1.061-1.98-1.904s-0.586-2.148-0.586-3.914v-1.031h4.734v1.184
		c0,1.227,0.043,2.098,0.129,2.613s0.383,0.773,0.891,0.773c0.234,0,0.424-0.074,0.568-0.223s0.223-0.309,0.234-0.48
		s0.025-0.918,0.041-2.238v-3.762c0-0.711-0.074-1.195-0.223-1.453s-0.395-0.387-0.738-0.387c-0.219,0-0.402,0.066-0.551,0.199
		s-0.244,0.275-0.287,0.428s-0.064,0.506-0.064,1.061h-4.688l0.199-9.562H680.917z"/>
</g>
<g>
	<path d="M743.007,451.287v3.234h-10.418l0.003-2.707c3.086-5.047,4.92-8.17,5.502-9.369s0.873-2.135,0.873-2.807
		c0-0.516-0.088-0.9-0.264-1.154c-0.177-0.254-0.444-0.381-0.804-0.381c-0.36,0-0.628,0.141-0.804,0.422
		c-0.177,0.281-0.265,0.84-0.265,1.676v1.805h-4.242v-0.691c0-1.062,0.055-1.9,0.164-2.514s0.379-1.217,0.809-1.811
		s0.988-1.043,1.676-1.348s1.512-0.457,2.473-0.457c1.883,0,3.307,0.467,4.271,1.4s1.447,2.115,1.447,3.545
		c0,1.086-0.271,2.234-0.814,3.445s-2.143,3.781-4.799,7.711H743.007z"/>
	<path d="M756.015,441.971v6.328c0,1.438-0.078,2.484-0.234,3.141s-0.48,1.27-0.973,1.84s-1.086,0.98-1.781,1.23
		s-1.473,0.375-2.332,0.375c-1.133,0-2.074-0.131-2.824-0.393s-1.348-0.67-1.793-1.225s-0.762-1.139-0.949-1.752
		s-0.281-1.588-0.281-2.924v-6.621c0-1.742,0.15-3.047,0.451-3.914s0.898-1.562,1.793-2.086s1.979-0.785,3.252-0.785
		c1.039,0,1.969,0.182,2.789,0.545s1.434,0.807,1.84,1.33s0.682,1.113,0.826,1.77S756.015,440.533,756.015,441.971z M751.28,440.377
		c0-1.008-0.049-1.639-0.146-1.893s-0.326-0.381-0.686-0.381c-0.352,0-0.584,0.135-0.697,0.404s-0.17,0.893-0.17,1.869v9.258
		c0,1.102,0.053,1.766,0.158,1.992s0.334,0.34,0.686,0.34s0.582-0.133,0.691-0.398s0.164-0.863,0.164-1.793V440.377z"/>
	<path d="M765.015,435.549v18.973h-4.734V444.35c0-1.469-0.035-2.352-0.105-2.648s-0.264-0.521-0.58-0.674s-1.021-0.229-2.115-0.229
		h-0.469v-2.212c2.289-0.492,4.027-1.505,5.215-3.038H765.015z"/>
	<path d="M778.022,441.971v6.328c0,1.438-0.078,2.484-0.234,3.141s-0.48,1.27-0.973,1.84s-1.086,0.98-1.781,1.23
		s-1.473,0.375-2.332,0.375c-1.133,0-2.074-0.131-2.824-0.393s-1.348-0.67-1.793-1.225s-0.762-1.139-0.949-1.752
		s-0.281-1.588-0.281-2.924v-6.621c0-1.742,0.15-3.047,0.451-3.914s0.898-1.562,1.793-2.086s1.979-0.785,3.252-0.785
		c1.039,0,1.969,0.182,2.789,0.545s1.434,0.807,1.84,1.33s0.682,1.113,0.826,1.77S778.022,440.533,778.022,441.971z
		 M773.288,440.377c0-1.008-0.049-1.639-0.146-1.893s-0.326-0.381-0.686-0.381c-0.352,0-0.584,0.135-0.697,0.404
		s-0.17,0.893-0.17,1.869v9.258c0,1.102,0.053,1.766,0.158,1.992s0.334,0.34,0.686,0.34s0.582-0.133,0.691-0.398
		s0.164-0.863,0.164-1.793V440.377z"/>
</g>
<g>
	<path d="M842.007,451.287v3.234h-10.418l0.003-2.707c3.086-5.047,4.92-8.17,5.502-9.369s0.873-2.135,0.873-2.807
		c0-0.516-0.088-0.9-0.264-1.154c-0.177-0.254-0.444-0.381-0.804-0.381c-0.36,0-0.628,0.141-0.804,0.422
		c-0.177,0.281-0.265,0.84-0.265,1.676v1.805h-4.242v-0.691c0-1.062,0.055-1.9,0.164-2.514s0.379-1.217,0.809-1.811
		s0.988-1.043,1.676-1.348s1.512-0.457,2.473-0.457c1.883,0,3.307,0.467,4.271,1.4s1.447,2.115,1.447,3.545
		c0,1.086-0.271,2.234-0.814,3.445s-2.143,3.781-4.799,7.711H842.007z"/>
	<path d="M855.015,441.971v6.328c0,1.438-0.078,2.484-0.234,3.141s-0.48,1.27-0.973,1.84s-1.086,0.98-1.781,1.23
		s-1.473,0.375-2.332,0.375c-1.133,0-2.074-0.131-2.824-0.393s-1.348-0.67-1.793-1.225s-0.762-1.139-0.949-1.752
		s-0.281-1.588-0.281-2.924v-6.621c0-1.742,0.15-3.047,0.451-3.914s0.898-1.562,1.793-2.086s1.979-0.785,3.252-0.785
		c1.039,0,1.969,0.182,2.789,0.545s1.434,0.807,1.84,1.33s0.682,1.113,0.826,1.77S855.015,440.533,855.015,441.971z M850.28,440.377
		c0-1.008-0.049-1.639-0.146-1.893s-0.326-0.381-0.686-0.381c-0.352,0-0.584,0.135-0.697,0.404s-0.17,0.893-0.17,1.869v9.258
		c0,1.102,0.053,1.766,0.158,1.992s0.334,0.34,0.686,0.34s0.582-0.133,0.691-0.398s0.164-0.863,0.164-1.793V440.377z"/>
	<path d="M864.015,435.549v18.973h-4.734V444.35c0-1.469-0.035-2.352-0.105-2.648s-0.264-0.521-0.58-0.674s-1.021-0.229-2.115-0.229
		h-0.469v-2.212c2.289-0.492,4.027-1.505,5.215-3.038H864.015z"/>
	<path d="M876.19,435.549v3.035h-5.871v3.223c0.734-0.867,1.68-1.301,2.836-1.301c1.305,0,2.291,0.365,2.959,1.096
		s1.002,2.135,1.002,4.213v2.707c0,1.344-0.064,2.33-0.193,2.959s-0.404,1.211-0.826,1.746s-1.01,0.945-1.764,1.23
		s-1.674,0.428-2.76,0.428c-1.219,0-2.293-0.213-3.223-0.639s-1.59-1.061-1.98-1.904s-0.586-2.148-0.586-3.914v-1.031h4.734v1.184
		c0,1.227,0.043,2.098,0.129,2.613s0.383,0.773,0.891,0.773c0.234,0,0.424-0.074,0.568-0.223s0.223-0.309,0.234-0.48
		s0.025-0.918,0.041-2.238v-3.762c0-0.711-0.074-1.195-0.223-1.453s-0.395-0.387-0.738-0.387c-0.219,0-0.402,0.066-0.551,0.199
		s-0.244,0.275-0.287,0.428s-0.064,0.506-0.064,1.061h-4.688l0.199-9.562H876.19z"/>
</g>
<g>
	<path d="M122.101,353.549v18.973h-4.734V362.35c0-1.469-0.035-2.352-0.105-2.648s-0.264-0.521-0.58-0.674s-1.021-0.229-2.115-0.229
		h-0.469v-2.212c2.289-0.492,4.027-1.505,5.215-3.038H122.101z"/>
	<path d="M134.147,369.287v3.234h-10.418l0.003-2.707c3.086-5.047,4.92-8.17,5.502-9.369s0.873-2.135,0.873-2.807
		c0-0.516-0.088-0.9-0.264-1.154c-0.177-0.254-0.444-0.381-0.804-0.381c-0.36,0-0.628,0.141-0.804,0.422
		c-0.177,0.281-0.265,0.84-0.265,1.676v1.805h-4.242v-0.691c0-1.062,0.055-1.9,0.164-2.514s0.379-1.217,0.809-1.811
		s0.988-1.043,1.676-1.348s1.512-0.457,2.473-0.457c1.883,0,3.307,0.467,4.271,1.4s1.447,2.115,1.447,3.545
		c0,1.086-0.271,2.234-0.814,3.445s-2.143,3.781-4.799,7.711H134.147z"/>
	<path d="M142.55,356.783v3.258c0,0.852-0.08,1.49-0.24,1.916s-0.504,0.797-1.031,1.113s-1.225,0.475-2.092,0.475
		c-1,0-1.762-0.15-2.285-0.451s-0.877-0.662-1.061-1.084s-0.275-1.027-0.275-1.816v-3.41c0-0.938,0.096-1.631,0.287-2.08
		s0.561-0.814,1.107-1.096s1.223-0.422,2.027-0.422c0.891,0,1.613,0.154,2.168,0.463s0.926,0.682,1.113,1.119
		S142.55,355.877,142.55,356.783z M139.55,355.951c0-0.5-0.025-0.809-0.076-0.926s-0.189-0.176-0.416-0.176
		c-0.211,0-0.348,0.062-0.41,0.188s-0.094,0.43-0.094,0.914v4.781c0,0.547,0.027,0.875,0.082,0.984s0.199,0.164,0.434,0.164
		c0.203,0,0.334-0.062,0.393-0.188s0.088-0.418,0.088-0.879V355.951z M148.069,353.186l-7.418,19.699h-1.805l7.443-19.699H148.069z
		 M151.351,365.947v3.27c0,0.844-0.08,1.48-0.24,1.91s-0.504,0.803-1.031,1.119s-1.225,0.475-2.092,0.475
		c-0.992,0-1.752-0.152-2.279-0.457s-0.883-0.668-1.066-1.09s-0.275-1.023-0.275-1.805v-3.422c0-0.93,0.096-1.619,0.287-2.068
		s0.561-0.816,1.107-1.102s1.223-0.428,2.027-0.428c0.898,0,1.625,0.156,2.18,0.469s0.924,0.688,1.107,1.125
		S151.351,365.049,151.351,365.947z M148.351,365.127c0-0.5-0.025-0.811-0.076-0.932s-0.189-0.182-0.416-0.182
		c-0.211,0-0.346,0.062-0.404,0.188s-0.088,0.434-0.088,0.926v4.781c0,0.539,0.027,0.863,0.082,0.973s0.195,0.164,0.422,0.164
		c0.211,0,0.344-0.061,0.398-0.182s0.082-0.416,0.082-0.885V365.127z"/>
</g>
<g>
	<path d="M122.101,290.549v18.973h-4.734V299.35c0-1.469-0.035-2.352-0.105-2.648s-0.264-0.521-0.58-0.674s-1.021-0.229-2.115-0.229
		h-0.469v-2.212c2.289-0.492,4.027-1.505,5.215-3.038H122.101z"/>
	<path d="M133.597,290.549v12.398h1.348v3.234h-1.348v3.34h-4.734v-3.34h-5.625v-3.234l4.09-12.398H133.597z M128.862,302.947
		v-8.074l-2.092,8.074H128.862z"/>
	<path d="M142.491,293.783v3.258c0,0.852-0.08,1.49-0.24,1.916s-0.504,0.797-1.031,1.113s-1.225,0.475-2.092,0.475
		c-1,0-1.762-0.15-2.285-0.451s-0.877-0.662-1.061-1.084s-0.275-1.027-0.275-1.816v-3.41c0-0.938,0.096-1.631,0.287-2.08
		s0.561-0.814,1.107-1.096s1.223-0.422,2.027-0.422c0.891,0,1.613,0.154,2.168,0.463s0.926,0.682,1.113,1.119
		S142.491,292.877,142.491,293.783z M139.491,292.951c0-0.5-0.025-0.809-0.076-0.926s-0.189-0.176-0.416-0.176
		c-0.211,0-0.348,0.062-0.41,0.188s-0.094,0.43-0.094,0.914v4.781c0,0.547,0.027,0.875,0.082,0.984s0.199,0.164,0.434,0.164
		c0.203,0,0.334-0.062,0.393-0.188s0.088-0.418,0.088-0.879V292.951z M148.011,290.186l-7.418,19.699h-1.805l7.443-19.699H148.011z
		 M151.292,302.947v3.27c0,0.844-0.08,1.48-0.24,1.91s-0.504,0.803-1.031,1.119s-1.225,0.475-2.092,0.475
		c-0.992,0-1.752-0.152-2.279-0.457s-0.883-0.668-1.066-1.09s-0.275-1.023-0.275-1.805v-3.422c0-0.93,0.096-1.619,0.287-2.068
		s0.561-0.816,1.107-1.102s1.223-0.428,2.027-0.428c0.898,0,1.625,0.156,2.18,0.469s0.924,0.688,1.107,1.125
		S151.292,302.049,151.292,302.947z M148.292,302.127c0-0.5-0.025-0.811-0.076-0.932s-0.189-0.182-0.416-0.182
		c-0.211,0-0.346,0.062-0.404,0.188s-0.088,0.434-0.088,0.926v4.781c0,0.539,0.027,0.863,0.082,0.973s0.195,0.164,0.422,0.164
		c0.211,0,0.344-0.061,0.398-0.182s0.082-0.416,0.082-0.885V302.127z"/>
</g>
<g>
	<path d="M122.101,228.147v18.973h-4.734v-10.172c0-1.469-0.035-2.352-0.105-2.648s-0.264-0.521-0.58-0.674
		s-1.021-0.229-2.115-0.229h-0.469v-2.212c2.289-0.492,4.027-1.505,5.215-3.038H122.101z"/>
	<path d="M135.308,233.187h-4.734c0-0.883-0.01-1.439-0.029-1.67s-0.113-0.424-0.281-0.58s-0.396-0.234-0.686-0.234
		c-0.242,0-0.441,0.074-0.598,0.223s-0.246,0.34-0.27,0.574s-0.035,0.707-0.035,1.418v3.023c0.242-0.508,0.598-0.889,1.066-1.143
		s1.047-0.381,1.734-0.381c0.867,0,1.633,0.234,2.297,0.703s1.086,1.031,1.266,1.688s0.27,1.543,0.27,2.66v1.512
		c0,1.328-0.051,2.316-0.152,2.965s-0.373,1.248-0.814,1.799s-1.047,0.979-1.816,1.283s-1.666,0.457-2.689,0.457
		c-1.273,0-2.316-0.176-3.129-0.527s-1.439-0.857-1.881-1.518s-0.699-1.354-0.773-2.08s-0.111-2.137-0.111-4.23v-2.625
		c0-2.258,0.033-3.768,0.1-4.529s0.338-1.482,0.814-2.162s1.127-1.189,1.951-1.529s1.775-0.51,2.854-0.51
		c1.328,0,2.418,0.215,3.27,0.645s1.461,1.035,1.828,1.816S135.308,231.999,135.308,233.187z M130.573,239.104
		c0-0.672-0.074-1.133-0.223-1.383s-0.391-0.375-0.727-0.375c-0.328,0-0.568,0.119-0.721,0.357s-0.229,0.705-0.229,1.4v3.434
		c0,0.836,0.072,1.383,0.217,1.641s0.385,0.387,0.721,0.387c0.203,0,0.414-0.1,0.633-0.299s0.328-0.736,0.328-1.611V239.104z"/>
	<path d="M143.499,231.382v3.258c0,0.852-0.08,1.49-0.24,1.916s-0.504,0.797-1.031,1.113s-1.225,0.475-2.092,0.475
		c-1,0-1.762-0.15-2.285-0.451s-0.877-0.662-1.061-1.084s-0.275-1.027-0.275-1.816v-3.41c0-0.938,0.096-1.631,0.287-2.08
		s0.561-0.814,1.107-1.096s1.223-0.422,2.027-0.422c0.891,0,1.613,0.154,2.168,0.463s0.926,0.682,1.113,1.119
		S143.499,230.476,143.499,231.382z M140.499,230.55c0-0.5-0.025-0.809-0.076-0.926s-0.189-0.176-0.416-0.176
		c-0.211,0-0.348,0.062-0.41,0.188s-0.094,0.43-0.094,0.914v4.781c0,0.547,0.027,0.875,0.082,0.984s0.199,0.164,0.434,0.164
		c0.203,0,0.334-0.062,0.393-0.188s0.088-0.418,0.088-0.879V230.55z M149.019,227.784l-7.418,19.699h-1.805l7.443-19.699H149.019z
		 M152.3,240.546v3.27c0,0.844-0.08,1.48-0.24,1.91s-0.504,0.803-1.031,1.119s-1.225,0.475-2.092,0.475
		c-0.992,0-1.752-0.152-2.279-0.457s-0.883-0.668-1.066-1.09s-0.275-1.023-0.275-1.805v-3.422c0-0.93,0.096-1.619,0.287-2.068
		s0.561-0.816,1.107-1.102s1.223-0.428,2.027-0.428c0.898,0,1.625,0.156,2.18,0.469s0.924,0.688,1.107,1.125
		S152.3,239.647,152.3,240.546z M149.3,239.726c0-0.5-0.025-0.811-0.076-0.932s-0.189-0.182-0.416-0.182
		c-0.211,0-0.346,0.062-0.404,0.188s-0.088,0.434-0.088,0.926v4.781c0,0.539,0.027,0.863,0.082,0.973s0.195,0.164,0.422,0.164
		c0.211,0,0.344-0.061,0.398-0.182s0.082-0.416,0.082-0.885V239.726z"/>
</g>
<g>
	<path d="M122.101,164.147v18.973h-4.734v-10.172c0-1.469-0.035-2.352-0.105-2.648s-0.264-0.521-0.58-0.674
		s-1.021-0.229-2.115-0.229h-0.469v-2.212c2.289-0.492,4.027-1.505,5.215-3.038H122.101z"/>
	<path d="M132.976,172.356c0.695,0.281,1.23,0.701,1.605,1.261c0.375,0.559,0.562,1.89,0.562,3.992c0,1.532-0.148,2.661-0.445,3.389
		c-0.297,0.727-0.875,1.322-1.734,1.788c-0.859,0.465-2.012,0.697-3.457,0.697c-1.406,0-2.52-0.223-3.34-0.668
		c-0.82-0.446-1.408-1.036-1.764-1.771c-0.355-0.735-0.533-1.958-0.533-3.67c0-1.149,0.088-2.146,0.264-2.99
		c0.176-0.844,0.729-1.521,1.658-2.028c-0.586-0.281-1.025-0.728-1.318-1.341s-0.439-1.392-0.439-2.336
		c0-1.632,0.453-2.855,1.359-3.672c0.906-0.815,2.262-1.224,4.066-1.224c2.086,0,3.527,0.434,4.324,1.3s1.195,2.104,1.195,3.712
		c0,1.023-0.131,1.761-0.393,2.214S133.788,171.911,132.976,172.356z M130.409,176.171c0-0.727-0.074-1.209-0.223-1.447
		s-0.383-0.357-0.703-0.357c-0.312,0-0.537,0.115-0.674,0.346s-0.205,0.717-0.205,1.459v2.461c0,0.82,0.076,1.348,0.229,1.582
		s0.393,0.352,0.721,0.352c0.336,0,0.562-0.119,0.68-0.357s0.176-0.775,0.176-1.611V176.171z M130.315,168.284
		c0-0.641-0.057-1.064-0.17-1.271s-0.33-0.311-0.65-0.311c-0.312,0-0.523,0.111-0.633,0.334s-0.164,0.639-0.164,1.248v1.441
		c0,0.57,0.062,0.965,0.188,1.184s0.336,0.328,0.633,0.328c0.312,0,0.523-0.107,0.633-0.322s0.164-0.658,0.164-1.33V168.284z"/>
	<path d="M143.335,167.382v3.258c0,0.852-0.08,1.49-0.24,1.916s-0.504,0.797-1.031,1.113s-1.225,0.475-2.092,0.475
		c-1,0-1.762-0.15-2.285-0.451s-0.877-0.662-1.061-1.084s-0.275-1.027-0.275-1.816v-3.41c0-0.938,0.096-1.631,0.287-2.08
		s0.561-0.814,1.107-1.096s1.223-0.422,2.027-0.422c0.891,0,1.613,0.154,2.168,0.463s0.926,0.682,1.113,1.119
		S143.335,166.476,143.335,167.382z M140.335,166.55c0-0.5-0.025-0.809-0.076-0.926s-0.189-0.176-0.416-0.176
		c-0.211,0-0.348,0.062-0.41,0.188s-0.094,0.43-0.094,0.914v4.781c0,0.547,0.027,0.875,0.082,0.984s0.199,0.164,0.434,0.164
		c0.203,0,0.334-0.062,0.393-0.188s0.088-0.418,0.088-0.879V166.55z M148.854,163.784l-7.418,19.699h-1.805l7.443-19.699H148.854z
		 M152.136,176.546v3.27c0,0.844-0.08,1.48-0.24,1.91s-0.504,0.803-1.031,1.119s-1.225,0.475-2.092,0.475
		c-0.992,0-1.752-0.152-2.279-0.457s-0.883-0.668-1.066-1.09s-0.275-1.023-0.275-1.805v-3.422c0-0.93,0.096-1.619,0.287-2.068
		s0.561-0.816,1.107-1.102s1.223-0.428,2.027-0.428c0.898,0,1.625,0.156,2.18,0.469s0.924,0.688,1.107,1.125
		S152.136,175.647,152.136,176.546z M149.136,175.726c0-0.5-0.025-0.811-0.076-0.932s-0.189-0.182-0.416-0.182
		c-0.211,0-0.346,0.062-0.404,0.188s-0.088,0.434-0.088,0.926v4.781c0,0.539,0.027,0.863,0.082,0.973s0.195,0.164,0.422,0.164
		c0.211,0,0.344-0.061,0.398-0.182s0.082-0.416,0.082-0.885V175.726z"/>
</g>
<g>
	<path d="M125.007,116.886v3.234h-10.418l0.003-2.707c3.086-5.047,4.92-8.17,5.502-9.369s0.873-2.135,0.873-2.807
		c0-0.516-0.088-0.9-0.264-1.154c-0.177-0.254-0.444-0.381-0.804-0.381c-0.36,0-0.628,0.141-0.804,0.422
		c-0.177,0.281-0.265,0.84-0.265,1.676v1.805h-4.242v-0.691c0-1.062,0.055-1.9,0.164-2.514s0.379-1.217,0.809-1.811
		s0.988-1.043,1.676-1.348s1.512-0.457,2.473-0.457c1.883,0,3.307,0.467,4.271,1.4s1.447,2.115,1.447,3.545
		c0,1.086-0.271,2.234-0.814,3.445s-2.143,3.781-4.799,7.711H125.007z"/>
	<path d="M138.015,107.569v6.328c0,1.438-0.078,2.484-0.234,3.141s-0.48,1.27-0.973,1.84s-1.086,0.98-1.781,1.23
		s-1.473,0.375-2.332,0.375c-1.133,0-2.074-0.131-2.824-0.393s-1.348-0.67-1.793-1.225s-0.762-1.139-0.949-1.752
		s-0.281-1.588-0.281-2.924v-6.621c0-1.742,0.15-3.047,0.451-3.914s0.898-1.562,1.793-2.086s1.979-0.785,3.252-0.785
		c1.039,0,1.969,0.182,2.789,0.545s1.434,0.807,1.84,1.33s0.682,1.113,0.826,1.77S138.015,106.132,138.015,107.569z M133.28,105.976
		c0-1.008-0.049-1.639-0.146-1.893s-0.326-0.381-0.686-0.381c-0.352,0-0.584,0.135-0.697,0.404s-0.17,0.893-0.17,1.869v9.258
		c0,1.102,0.053,1.766,0.158,1.992s0.334,0.34,0.686,0.34s0.582-0.133,0.691-0.398s0.164-0.863,0.164-1.793V105.976z"/>
	<path d="M146.276,104.382v3.258c0,0.852-0.08,1.49-0.24,1.916s-0.504,0.797-1.031,1.113s-1.225,0.475-2.092,0.475
		c-1,0-1.762-0.15-2.285-0.451s-0.877-0.662-1.061-1.084s-0.275-1.027-0.275-1.816v-3.41c0-0.938,0.096-1.631,0.287-2.08
		s0.561-0.814,1.107-1.096s1.223-0.422,2.027-0.422c0.891,0,1.613,0.154,2.168,0.463s0.926,0.682,1.113,1.119
		S146.276,103.476,146.276,104.382z M143.276,103.55c0-0.5-0.025-0.809-0.076-0.926s-0.189-0.176-0.416-0.176
		c-0.211,0-0.348,0.062-0.41,0.188s-0.094,0.43-0.094,0.914v4.781c0,0.547,0.027,0.875,0.082,0.984s0.199,0.164,0.434,0.164
		c0.203,0,0.334-0.062,0.393-0.188s0.088-0.418,0.088-0.879V103.55z M151.796,100.784l-7.418,19.699h-1.805l7.443-19.699H151.796z
		 M155.077,113.546v3.27c0,0.844-0.08,1.48-0.24,1.91s-0.504,0.803-1.031,1.119s-1.225,0.475-2.092,0.475
		c-0.992,0-1.752-0.152-2.279-0.457s-0.883-0.668-1.066-1.09s-0.275-1.023-0.275-1.805v-3.422c0-0.93,0.096-1.619,0.287-2.068
		s0.561-0.816,1.107-1.102s1.223-0.428,2.027-0.428c0.898,0,1.625,0.156,2.18,0.469s0.924,0.688,1.107,1.125
		S155.077,112.647,155.077,113.546z M152.077,112.726c0-0.5-0.025-0.811-0.076-0.932s-0.189-0.182-0.416-0.182
		c-0.211,0-0.346,0.062-0.404,0.188s-0.088,0.434-0.088,0.926v4.781c0,0.539,0.027,0.863,0.082,0.973s0.195,0.164,0.422,0.164
		c0.211,0,0.344-0.061,0.398-0.182s0.082-0.416,0.082-0.885V112.726z"/>
</g>
<g>
	<path d="M125.007,51.886v3.234h-10.418l0.003-2.707c3.086-5.047,4.92-8.17,5.502-9.369s0.873-2.135,0.873-2.807
		c0-0.516-0.088-0.9-0.264-1.154c-0.177-0.254-0.444-0.381-0.804-0.381c-0.36,0-0.628,0.141-0.804,0.422
		c-0.177,0.281-0.265,0.84-0.265,1.676v1.805h-4.242v-0.691c0-1.062,0.055-1.9,0.164-2.514s0.379-1.217,0.809-1.811
		s0.988-1.043,1.676-1.348s1.512-0.457,2.473-0.457c1.883,0,3.307,0.467,4.271,1.4s1.447,2.115,1.447,3.545
		c0,1.086-0.271,2.234-0.814,3.445s-2.143,3.781-4.799,7.711H125.007z"/>
	<path d="M137.054,51.886v3.234h-10.418l0.003-2.707c3.086-5.047,4.92-8.17,5.502-9.369s0.873-2.135,0.873-2.807
		c0-0.516-0.088-0.9-0.264-1.154c-0.177-0.254-0.444-0.381-0.804-0.381c-0.36,0-0.628,0.141-0.804,0.422
		c-0.177,0.281-0.265,0.84-0.265,1.676v1.805h-4.242v-0.691c0-1.062,0.055-1.9,0.164-2.514s0.379-1.217,0.809-1.811
		s0.988-1.043,1.676-1.348s1.512-0.457,2.473-0.457c1.883,0,3.307,0.467,4.271,1.4s1.447,2.115,1.447,3.545
		c0,1.086-0.271,2.234-0.814,3.445s-2.143,3.781-4.799,7.711H137.054z"/>
	<path d="M145.456,39.382v3.258c0,0.852-0.08,1.49-0.24,1.916s-0.504,0.797-1.031,1.113s-1.225,0.475-2.092,0.475
		c-1,0-1.762-0.15-2.285-0.451s-0.877-0.662-1.061-1.084s-0.275-1.027-0.275-1.816v-3.41c0-0.938,0.096-1.631,0.287-2.08
		s0.561-0.814,1.107-1.096s1.223-0.422,2.027-0.422c0.891,0,1.613,0.154,2.168,0.463s0.926,0.682,1.113,1.119
		S145.456,38.476,145.456,39.382z M142.456,38.55c0-0.5-0.025-0.809-0.076-0.926s-0.189-0.176-0.416-0.176
		c-0.211,0-0.348,0.062-0.41,0.188s-0.094,0.43-0.094,0.914v4.781c0,0.547,0.027,0.875,0.082,0.984s0.199,0.164,0.434,0.164
		c0.203,0,0.334-0.062,0.393-0.188s0.088-0.418,0.088-0.879V38.55z M150.976,35.784l-7.418,19.699h-1.805l7.443-19.699H150.976z
		 M154.257,48.546v3.27c0,0.844-0.08,1.48-0.24,1.91s-0.504,0.803-1.031,1.119s-1.225,0.475-2.092,0.475
		c-0.992,0-1.752-0.152-2.279-0.457s-0.883-0.668-1.066-1.09s-0.275-1.023-0.275-1.805v-3.422c0-0.93,0.096-1.619,0.287-2.068
		s0.561-0.816,1.107-1.102s1.223-0.428,2.027-0.428c0.898,0,1.625,0.156,2.18,0.469s0.924,0.688,1.107,1.125
		S154.257,47.647,154.257,48.546z M151.257,47.726c0-0.5-0.025-0.811-0.076-0.932s-0.189-0.182-0.416-0.182
		c-0.211,0-0.346,0.062-0.404,0.188s-0.088,0.434-0.088,0.926v4.781c0,0.539,0.027,0.863,0.082,0.973s0.195,0.164,0.422,0.164
		c0.211,0,0.344-0.061,0.398-0.182s0.082-0.416,0.082-0.885V47.726z"/>
</g>
<g>
	<path d="M74.921,374.083v4.582h-1.406c-0.656,0-1.074,0.059-1.254,0.176s-0.27,0.312-0.27,0.586c0,0.297,0.121,0.521,0.363,0.674
		c0.243,0.152,0.61,0.229,1.103,0.229c0.634,0,1.11-0.085,1.431-0.257c0.32-0.164,0.707-0.628,1.16-1.394
		c1.304-2.196,2.373-3.58,3.209-4.15s2.184-0.855,4.043-0.855c1.352,0,2.348,0.158,2.988,0.475s1.178,0.928,1.611,1.834
		s0.65,1.961,0.65,3.164c0,1.32-0.25,2.447-0.75,3.381s-1.137,1.545-1.91,1.834s-1.871,0.434-3.293,0.434h-1.242v-4.582h2.309
		c0.711,0,1.168-0.064,1.371-0.193s0.305-0.357,0.305-0.686s-0.129-0.572-0.387-0.732s-0.641-0.24-1.148-0.24
		c-1.117,0-1.848,0.152-2.191,0.457c-0.344,0.312-0.918,1.082-1.723,2.309c-0.812,1.227-1.402,2.039-1.77,2.438
		s-0.875,0.729-1.523,0.99s-1.477,0.393-2.484,0.393c-1.453,0-2.516-0.186-3.188-0.557s-1.197-0.971-1.576-1.799
		s-0.568-1.828-0.568-3c0-1.281,0.207-2.373,0.621-3.275s0.936-1.5,1.564-1.793s1.697-0.439,3.205-0.439H74.921z"/>
	<path d="M69.179,360.783h18.973v4.934h-7.969v1.477h7.969v4.934H69.179v-4.934h6.785v-1.477h-6.785V360.783z"/>
	<path d="M69.179,350.274l18.973-2.821v5.042l-3.41,0.265v1.765l3.41,0.297v5.101l-18.973-2.517V350.274z M81.378,352.889
		c-2.148,0.25-4.805,0.5-7.969,0.751c3.633,0.502,6.289,0.818,7.969,0.947V352.889z"/>
	<path d="M69.179,346.615v-3.492c0-2.328,0.09-3.904,0.27-4.729s0.639-1.496,1.377-2.016s1.916-0.779,3.533-0.779
		c1.477,0,2.469,0.184,2.977,0.551s0.812,1.09,0.914,2.168c0.242-0.977,0.566-1.633,0.973-1.969s0.779-0.545,1.119-0.627
		s1.275-0.123,2.807-0.123h5.004v4.582h-6.305c-1.016,0-1.645,0.08-1.887,0.24s-0.363,0.58-0.363,1.26h8.555v4.934H69.179z
		 M72.425,341.681h4.219c0-0.555-0.076-0.943-0.229-1.166s-0.646-0.334-1.482-0.334H73.89c-0.602,0-0.996,0.107-1.184,0.322
		S72.425,341.111,72.425,341.681z"/>
	<path d="M69.179,333.689v-8.227h3.797v3.293h3.598v-3.082h3.609v3.082h4.172v-3.621h3.797v8.555H69.179z"/>
	<path d="M80.288,308.212c1.906,0,3.256,0.045,4.049,0.135s1.518,0.371,2.174,0.844s1.16,1.111,1.512,1.916s0.527,1.742,0.527,2.812
		c0,1.016-0.166,1.928-0.498,2.736s-0.83,1.459-1.494,1.951s-1.387,0.785-2.168,0.879s-2.148,0.141-4.102,0.141h-3.246
		c-1.906,0-3.256-0.045-4.049-0.135s-1.518-0.371-2.174-0.844s-1.16-1.111-1.512-1.916s-0.527-1.742-0.527-2.812
		c0-1.016,0.166-1.928,0.498-2.736s0.83-1.459,1.494-1.951s1.387-0.785,2.168-0.879s2.148-0.141,4.102-0.141H80.288z
		 M74.054,313.146c-0.883,0-1.447,0.049-1.693,0.146s-0.369,0.299-0.369,0.604c0,0.258,0.1,0.455,0.299,0.592
		s0.787,0.205,1.764,0.205h8.859c1.102,0,1.781-0.045,2.039-0.135s0.387-0.299,0.387-0.627c0-0.336-0.148-0.551-0.445-0.645
		s-1.004-0.141-2.121-0.141H74.054z"/>
	<path d="M69.179,306.373v-8.355h3.797v3.422h3.598v-3.047h3.609v3.047h7.969v4.934H69.179z"/>
	<path d="M69.179,281.576h18.973v4.324l-8.625,2.566h8.625v4.125H69.179v-4.125l8.543-2.766h-8.543V281.576z"/>
	<path d="M69.179,271.067l18.973-2.821v5.042l-3.41,0.265v1.765l3.41,0.297v5.101l-18.973-2.517V271.067z M81.378,273.682
		c-2.148,0.25-4.805,0.5-7.969,0.751c3.633,0.502,6.289,0.818,7.969,0.947V273.682z"/>
	<path d="M69.179,258.794h3.797v2.93h15.176v4.934H72.976v2.918h-3.797V258.794z"/>
	<path d="M69.179,252.736h18.973v4.934H69.179V252.736z"/>
	<path d="M80.288,239.482c1.906,0,3.256,0.045,4.049,0.135s1.518,0.371,2.174,0.844s1.16,1.111,1.512,1.916s0.527,1.742,0.527,2.812
		c0,1.016-0.166,1.928-0.498,2.736s-0.83,1.459-1.494,1.951s-1.387,0.785-2.168,0.879s-2.148,0.141-4.102,0.141h-3.246
		c-1.906,0-3.256-0.045-4.049-0.135s-1.518-0.371-2.174-0.844s-1.16-1.111-1.512-1.916s-0.527-1.742-0.527-2.812
		c0-1.016,0.166-1.928,0.498-2.736s0.83-1.459,1.494-1.951s1.387-0.785,2.168-0.879s2.148-0.141,4.102-0.141H80.288z
		 M74.054,244.416c-0.883,0-1.447,0.049-1.693,0.146s-0.369,0.299-0.369,0.604c0,0.258,0.1,0.455,0.299,0.592
		s0.787,0.205,1.764,0.205h8.859c1.102,0,1.781-0.045,2.039-0.135s0.387-0.299,0.387-0.627c0-0.336-0.148-0.551-0.445-0.645
		s-1.004-0.141-2.121-0.141H74.054z"/>
	<path d="M69.179,226.626h18.973v4.324l-8.625,2.566h8.625v4.125H69.179v-4.125l8.543-2.766h-8.543V226.626z"/>
	<path d="M69.179,216.118l18.973-2.821v5.042l-3.41,0.265v1.765l3.41,0.297v5.101l-18.973-2.517V216.118z M81.378,218.732
		c-2.148,0.25-4.805,0.5-7.969,0.751c3.633,0.502,6.289,0.818,7.969,0.947V218.732z"/>
	<path d="M69.179,207.525h15.176v-3h3.797v7.934H69.179V207.525z"/>
	<path d="M69.179,194.166h18.973v4.934H69.179V194.166z"/>
	<path d="M69.179,181.169h18.973v4.324l-8.625,2.566h8.625v4.125H69.179v-4.125l8.543-2.766h-8.543V181.169z"/>
	<path d="M77.44,167.669v4.934h-3.298c-0.958,0-1.557,0.053-1.795,0.158c-0.237,0.105-0.356,0.338-0.356,0.697
		c0,0.406,0.145,0.664,0.434,0.773s0.914,0.164,1.875,0.164h8.812c0.922,0,1.523-0.055,1.805-0.164s0.422-0.355,0.422-0.738
		c0-0.367-0.141-0.607-0.423-0.721s-0.943-0.17-1.985-0.17h-2.385v-4.934h0.739c1.964,0,3.356,0.139,4.178,0.416
		c0.822,0.277,1.542,0.891,2.16,1.84s0.927,2.119,0.927,3.51c0,1.445-0.262,2.637-0.785,3.574s-1.248,1.559-2.174,1.863
		s-2.318,0.457-4.178,0.457H75.87c-1.367,0-2.393-0.047-3.076-0.141s-1.342-0.373-1.975-0.838s-1.131-1.109-1.494-1.934
		s-0.545-1.771-0.545-2.842c0-1.453,0.281-2.652,0.843-3.598s1.262-1.566,2.101-1.863s2.144-0.445,3.914-0.445H77.44z"/>
	<path d="M80.288,154.626c1.906,0,3.256,0.045,4.049,0.135s1.518,0.371,2.174,0.844s1.16,1.111,1.512,1.916s0.527,1.742,0.527,2.812
		c0,1.016-0.166,1.928-0.498,2.736s-0.83,1.459-1.494,1.951s-1.387,0.785-2.168,0.879s-2.148,0.141-4.102,0.141h-3.246
		c-1.906,0-3.256-0.045-4.049-0.135s-1.518-0.371-2.174-0.844s-1.16-1.111-1.512-1.916s-0.527-1.742-0.527-2.812
		c0-1.016,0.166-1.928,0.498-2.736s0.83-1.459,1.494-1.951s1.387-0.785,2.168-0.879s2.148-0.141,4.102-0.141H80.288z M74.054,159.56
		c-0.883,0-1.447,0.049-1.693,0.146s-0.369,0.299-0.369,0.604c0,0.258,0.1,0.455,0.299,0.592s0.787,0.205,1.764,0.205h8.859
		c1.102,0,1.781-0.045,2.039-0.135s0.387-0.299,0.387-0.627c0-0.336-0.148-0.551-0.445-0.645s-1.004-0.141-2.121-0.141H74.054z"/>
	<path d="M69.179,137.564h18.973v4.312l-12.809,0.006l12.809,1.717v3.059l-12.516,1.811l12.516,0.006v4.312H69.179v-6.384
		c1.141-0.189,2.485-0.385,4.033-0.585l4.826-0.701l-8.859-1.134V137.564z"/>
	<path d="M69.179,135.583v-8.227h3.797v3.293h3.598v-3.082h3.609v3.082h4.172v-3.621h3.797v8.555H69.179z"/>
	<path d="M69.179,115.275h2.473c0,0.648,0.027,1.068,0.082,1.26s0.182,0.332,0.381,0.422s0.764,0.135,1.693,0.135h9.715
		c0.867,0,1.408-0.035,1.623-0.105s0.357-0.201,0.428-0.393s0.105-0.631,0.105-1.318h2.473v1.488c0,1.375-0.127,2.385-0.381,3.029
		s-0.627,1.07-1.119,1.277s-1.539,0.311-3.141,0.311h-9.691c-1.594,0-2.641-0.102-3.141-0.305s-0.875-0.637-1.125-1.301
		s-0.375-1.668-0.375-3.012V115.275z"/>
	<path d="M68.815,101.916l19.699,7.418v1.805l-19.699-7.443V101.916z M72.413,107.435h3.258c0.852,0,1.49,0.08,1.916,0.24
		s0.797,0.504,1.113,1.031s0.475,1.225,0.475,2.092c0,1-0.15,1.762-0.451,2.285s-0.662,0.877-1.084,1.061s-1.027,0.275-1.816,0.275
		h-3.41c-0.938,0-1.631-0.096-2.08-0.287s-0.814-0.561-1.096-1.107s-0.422-1.223-0.422-2.027c0-0.891,0.154-1.613,0.463-2.168
		s0.682-0.926,1.119-1.113S71.507,107.435,72.413,107.435z M71.581,110.435c-0.5,0-0.809,0.025-0.926,0.076
		s-0.176,0.189-0.176,0.416c0,0.211,0.062,0.348,0.188,0.41s0.43,0.094,0.914,0.094h4.781c0.547,0,0.875-0.027,0.984-0.082
		s0.164-0.199,0.164-0.434c0-0.203-0.062-0.334-0.188-0.393s-0.418-0.088-0.879-0.088H71.581z M81.577,98.634h3.27
		c0.844,0,1.48,0.08,1.91,0.24s0.803,0.504,1.119,1.031s0.475,1.225,0.475,2.092c0,0.992-0.152,1.752-0.457,2.279
		s-0.668,0.883-1.09,1.066s-1.023,0.275-1.805,0.275h-3.422c-0.93,0-1.619-0.096-2.068-0.287s-0.816-0.561-1.102-1.107
		s-0.428-1.223-0.428-2.027c0-0.898,0.156-1.625,0.469-2.18s0.688-0.924,1.125-1.107S80.679,98.634,81.577,98.634z M80.757,101.634
		c-0.5,0-0.811,0.025-0.932,0.076s-0.182,0.189-0.182,0.416c0,0.211,0.062,0.346,0.188,0.404s0.434,0.088,0.926,0.088h4.781
		c0.539,0,0.863-0.027,0.973-0.082s0.164-0.195,0.164-0.422c0-0.211-0.061-0.344-0.182-0.398s-0.416-0.082-0.885-0.082H80.757z"/>
	<path d="M69.179,97.791v-1.488c0-1.344,0.125-2.348,0.375-3.012s0.625-1.098,1.125-1.301s1.547-0.305,3.141-0.305h9.691
		c1.602,0,2.648,0.102,3.141,0.305s0.865,0.629,1.119,1.277s0.381,1.66,0.381,3.035v1.488h-2.473c0-0.695-0.035-1.137-0.105-1.324
		s-0.213-0.318-0.428-0.393s-0.756-0.111-1.623-0.111h-9.715c-0.93,0-1.494,0.047-1.693,0.141s-0.326,0.236-0.381,0.428
		s-0.082,0.611-0.082,1.26H69.179z"/>
</g>
<g>
	<path d="M767.779,152.886v3.797h-2.93v15.176h-4.934v-15.176h-2.918v-3.797H767.779z"/>
	<path d="M780.178,163.995c0,1.906-0.045,3.256-0.135,4.049s-0.371,1.518-0.844,2.174s-1.111,1.16-1.916,1.512
		s-1.742,0.527-2.812,0.527c-1.016,0-1.928-0.166-2.736-0.498s-1.459-0.83-1.951-1.494s-0.785-1.387-0.879-2.168
		s-0.141-2.148-0.141-4.102v-3.246c0-1.906,0.045-3.256,0.135-4.049s0.371-1.518,0.844-2.174s1.111-1.16,1.916-1.512
		s1.742-0.527,2.812-0.527c1.016,0,1.928,0.166,2.736,0.498s1.459,0.83,1.951,1.494s0.785,1.387,0.879,2.168
		s0.141,2.148,0.141,4.102V163.995z M775.244,157.761c0-0.883-0.049-1.447-0.146-1.693s-0.299-0.369-0.604-0.369
		c-0.258,0-0.455,0.1-0.592,0.299s-0.205,0.787-0.205,1.764v8.859c0,1.102,0.045,1.781,0.135,2.039s0.299,0.387,0.627,0.387
		c0.336,0,0.551-0.148,0.645-0.445s0.141-1.004,0.141-2.121V157.761z"/>
	<path d="M782.018,152.886h4.969c1.344,0,2.377,0.105,3.1,0.316s1.266,0.516,1.629,0.914s0.609,0.881,0.738,1.447
		s0.193,1.443,0.193,2.631v1.652c0,1.211-0.125,2.094-0.375,2.648s-0.709,0.98-1.377,1.277s-1.541,0.445-2.619,0.445h-1.324v7.641
		h-4.934V152.886z M786.951,156.132v4.828c0.141,0.008,0.262,0.012,0.363,0.012c0.453,0,0.768-0.111,0.943-0.334
		s0.264-0.686,0.264-1.389v-1.559c0-0.648-0.102-1.07-0.305-1.266S787.592,156.132,786.951,156.132z"/>
	<path d="M805.455,152.886v18.973h-4.734v-10.172c0-1.469-0.035-2.352-0.105-2.648s-0.264-0.521-0.58-0.674
		s-1.021-0.229-2.115-0.229h-0.469v-2.212c2.289-0.492,4.027-1.505,5.215-3.038H805.455z"/>
	<path d="M813.857,156.12v3.258c0,0.852-0.08,1.49-0.24,1.916s-0.504,0.797-1.031,1.113s-1.225,0.475-2.092,0.475
		c-1,0-1.762-0.15-2.285-0.451s-0.877-0.662-1.061-1.084s-0.275-1.027-0.275-1.816v-3.41c0-0.938,0.096-1.631,0.287-2.08
		s0.561-0.814,1.107-1.096s1.223-0.422,2.027-0.422c0.891,0,1.613,0.154,2.168,0.463s0.926,0.682,1.113,1.119
		S813.857,155.214,813.857,156.12z M810.857,155.288c0-0.5-0.025-0.809-0.076-0.926s-0.189-0.176-0.416-0.176
		c-0.211,0-0.348,0.062-0.41,0.188s-0.094,0.43-0.094,0.914v4.781c0,0.547,0.027,0.875,0.082,0.984s0.199,0.164,0.434,0.164
		c0.203,0,0.334-0.062,0.393-0.188s0.088-0.418,0.088-0.879V155.288z M819.377,152.522l-7.418,19.699h-1.805l7.443-19.699H819.377z
		 M822.658,165.284v3.27c0,0.844-0.08,1.48-0.24,1.91s-0.504,0.803-1.031,1.119s-1.225,0.475-2.092,0.475
		c-0.992,0-1.752-0.152-2.279-0.457s-0.883-0.668-1.066-1.09s-0.275-1.023-0.275-1.805v-3.422c0-0.93,0.096-1.619,0.287-2.068
		s0.561-0.816,1.107-1.102s1.223-0.428,2.027-0.428c0.898,0,1.625,0.156,2.18,0.469s0.924,0.688,1.107,1.125
		S822.658,164.386,822.658,165.284z M819.658,164.464c0-0.5-0.025-0.811-0.076-0.932s-0.189-0.182-0.416-0.182
		c-0.211,0-0.346,0.062-0.404,0.188s-0.088,0.434-0.088,0.926v4.781c0,0.539,0.027,0.863,0.082,0.973s0.195,0.164,0.422,0.164
		c0.211,0,0.344-0.061,0.398-0.182s0.082-0.416,0.082-0.885V164.464z"/>
</g>
<g>
	<path d="M756.942,343.818l4.922,0.026c1.555,0.009,2.732,0.136,3.531,0.383c0.8,0.246,1.443,0.739,1.932,1.479
		s0.729,1.93,0.72,3.569c-0.006,1.109-0.185,1.881-0.534,2.316s-1.037,0.768-2.062,0.996c1.14,0.264,1.911,0.696,2.313,1.297
		c0.403,0.6,0.602,1.518,0.595,2.752l-0.009,1.759c-0.008,1.282-0.159,2.231-0.455,2.848c-0.297,0.616-0.766,1.036-1.407,1.259
		c-0.642,0.224-1.955,0.329-3.939,0.318l-5.707-0.03L756.942,343.818z M761.82,354.263l-0.028,5.309
		c0.695-0.02,1.14-0.127,1.332-0.32c0.192-0.194,0.29-0.675,0.295-1.44l0.009-1.77c0.005-0.812-0.078-1.305-0.25-1.478
		C763.007,354.391,762.555,354.29,761.82,354.263z M761.859,347.091l-0.023,4.219c0.211-0.007,0.375-0.01,0.492-0.009
		c0.484,0.003,0.794-0.115,0.928-0.353c0.135-0.237,0.204-0.919,0.211-2.044c0.003-0.594-0.05-1.01-0.158-1.249
		c-0.107-0.238-0.249-0.39-0.425-0.453S762.366,347.102,761.859,347.091z"/>
	<path d="M781.41,355.06c-0.011,1.906-0.062,3.256-0.156,4.048c-0.095,0.793-0.38,1.516-0.855,2.17
		c-0.477,0.653-1.118,1.153-1.925,1.501s-1.745,0.518-2.814,0.513c-1.016-0.006-1.927-0.177-2.733-0.513
		c-0.808-0.337-1.455-0.839-1.943-1.505c-0.489-0.667-0.778-1.392-0.867-2.173c-0.09-0.782-0.129-2.149-0.119-4.103l0.018-3.246
		c0.011-1.906,0.062-3.256,0.156-4.048c0.095-0.793,0.38-1.516,0.855-2.169c0.477-0.654,1.118-1.154,1.925-1.502
		c0.807-0.347,1.745-0.518,2.815-0.512c1.015,0.005,1.926,0.176,2.732,0.513c0.807,0.336,1.455,0.838,1.943,1.504
		c0.488,0.667,0.777,1.392,0.867,2.173c0.09,0.782,0.129,2.149,0.119,4.103L781.41,355.06z M776.511,348.799
		c0.004-0.883-0.041-1.447-0.138-1.694s-0.297-0.371-0.602-0.372c-0.258-0.002-0.456,0.097-0.594,0.295
		c-0.138,0.199-0.209,0.786-0.214,1.763l-0.048,8.859c-0.006,1.102,0.035,1.782,0.124,2.04c0.088,0.259,0.296,0.389,0.624,0.39
		c0.336,0.002,0.552-0.145,0.647-0.441c0.096-0.296,0.146-1.003,0.152-2.12L776.511,348.799z"/>
	<path d="M793.247,344.014l-0.021,3.797l-2.93-0.016l-0.081,15.176l-4.934-0.027l0.081-15.176l-2.918-0.016l0.021-3.797
		L793.247,344.014z"/>
	<path d="M804.31,344.073l-0.021,3.797l-2.93-0.017l-0.081,15.176l-4.934-0.026l0.081-15.176l-2.918-0.016l0.021-3.797
		L804.31,344.073z"/>
	<path d="M816.647,355.249c-0.01,1.906-0.062,3.255-0.156,4.048c-0.094,0.792-0.379,1.516-0.855,2.169
		c-0.477,0.654-1.117,1.154-1.924,1.502c-0.807,0.347-1.745,0.518-2.815,0.512c-1.016-0.005-1.927-0.176-2.733-0.513
		c-0.807-0.336-1.454-0.838-1.943-1.504c-0.488-0.667-0.777-1.392-0.867-2.173c-0.089-0.782-0.129-2.149-0.118-4.103l0.018-3.246
		c0.01-1.906,0.062-3.256,0.156-4.048c0.094-0.793,0.379-1.516,0.855-2.17c0.476-0.653,1.117-1.154,1.924-1.501
		c0.807-0.348,1.745-0.519,2.815-0.513c1.016,0.006,1.927,0.177,2.733,0.513c0.807,0.337,1.454,0.838,1.943,1.505
		c0.488,0.667,0.777,1.391,0.867,2.173c0.089,0.781,0.129,2.149,0.118,4.103L816.647,355.249z M811.748,348.988
		c0.004-0.883-0.041-1.448-0.138-1.694c-0.097-0.247-0.297-0.371-0.602-0.373c-0.258-0.001-0.456,0.098-0.593,0.296
		c-0.138,0.198-0.21,0.786-0.215,1.763l-0.048,8.859c-0.006,1.102,0.036,1.781,0.124,2.04c0.089,0.258,0.296,0.388,0.624,0.39
		c0.336,0.002,0.552-0.146,0.647-0.441c0.096-0.297,0.146-1.003,0.152-2.12L811.748,348.988z"/>
	<path d="M833.77,344.231l-0.102,18.973l-4.312-0.023l0.062-12.809l-1.785,12.799l-3.059-0.016l-1.743-12.525l-0.073,12.516
		l-4.312-0.023l0.102-18.973l6.384,0.034c0.184,1.142,0.372,2.487,0.564,4.036l0.675,4.83l1.181-8.854L833.77,344.231z"/>
	<path d="M850.176,344.319l-0.017,3.035l-5.87-0.032l-0.018,3.223c0.738-0.862,1.687-1.291,2.843-1.285
		c1.305,0.007,2.289,0.378,2.953,1.111c0.664,0.734,0.99,2.141,0.979,4.219l-0.014,2.707c-0.008,1.344-0.077,2.329-0.21,2.958
		c-0.132,0.628-0.41,1.209-0.835,1.741c-0.425,0.533-1.016,0.94-1.771,1.222c-0.756,0.28-1.676,0.418-2.762,0.412
		c-1.219-0.006-2.292-0.225-3.219-0.655c-0.928-0.431-1.585-1.069-1.971-1.915s-0.574-2.151-0.564-3.917l0.005-1.031l4.734,0.025
		l-0.007,1.184c-0.007,1.227,0.032,2.098,0.115,2.613c0.083,0.517,0.379,0.775,0.887,0.778c0.234,0.001,0.424-0.071,0.569-0.22
		c0.146-0.147,0.224-0.307,0.236-0.479s0.03-0.918,0.054-2.238l0.02-3.762c0.004-0.711-0.067-1.196-0.215-1.454
		c-0.146-0.259-0.392-0.39-0.735-0.391c-0.219-0.002-0.403,0.063-0.553,0.196c-0.148,0.132-0.245,0.273-0.289,0.426
		s-0.067,0.506-0.07,1.061l-4.687-0.025l0.25-9.562L850.176,344.319z"/>
	<path d="M863.853,350.814l-0.034,6.328c-0.008,1.438-0.092,2.484-0.252,3.14c-0.159,0.655-0.487,1.267-0.982,1.835
		c-0.495,0.567-1.091,0.975-1.787,1.221c-0.697,0.246-1.475,0.367-2.334,0.362c-1.133-0.006-2.074-0.143-2.822-0.408
		c-0.749-0.266-1.345-0.677-1.787-1.233c-0.442-0.558-0.755-1.144-0.939-1.758s-0.272-1.589-0.266-2.925l0.036-6.621
		c0.009-1.742,0.166-3.046,0.472-3.912c0.306-0.865,0.907-1.558,1.805-2.076c0.896-0.519,1.982-0.774,3.256-0.768
		c1.039,0.006,1.968,0.192,2.786,0.56c0.818,0.368,1.429,0.814,1.833,1.34c0.403,0.526,0.675,1.117,0.816,1.774
		C863.793,348.33,863.859,349.377,863.853,350.814z M859.126,349.195c0.006-1.008-0.04-1.639-0.136-1.894
		c-0.097-0.254-0.324-0.382-0.684-0.384c-0.352-0.002-0.585,0.131-0.699,0.4c-0.115,0.269-0.175,0.892-0.181,1.868l-0.05,9.258
		c-0.006,1.102,0.044,1.766,0.147,1.993c0.104,0.227,0.333,0.341,0.685,0.343s0.582-0.129,0.693-0.395
		c0.11-0.265,0.169-0.862,0.174-1.792L859.126,349.195z"/>
	<path d="M872.131,347.672l-0.018,3.258c-0.005,0.852-0.088,1.489-0.25,1.914c-0.163,0.425-0.509,0.794-1.038,1.108
		c-0.528,0.313-1.227,0.468-2.094,0.463c-1-0.005-1.761-0.16-2.283-0.463c-0.521-0.304-0.873-0.667-1.055-1.09
		c-0.181-0.423-0.27-1.029-0.266-1.818l0.019-3.41c0.005-0.938,0.104-1.63,0.299-2.078c0.193-0.448,0.564-0.812,1.113-1.09
		c0.548-0.278,1.225-0.415,2.029-0.411c0.891,0.005,1.612,0.163,2.165,0.475c0.554,0.312,0.923,0.687,1.107,1.125
		C872.046,346.093,872.136,346.766,872.131,347.672z M869.136,346.823c0.002-0.5-0.021-0.809-0.071-0.926
		c-0.051-0.118-0.188-0.177-0.415-0.179c-0.211-0.001-0.349,0.061-0.411,0.186c-0.063,0.125-0.097,0.43-0.099,0.914l-0.026,4.781
		c-0.003,0.547,0.023,0.875,0.077,0.984s0.198,0.165,0.433,0.166c0.203,0.002,0.334-0.061,0.394-0.185
		c0.06-0.125,0.09-0.418,0.093-0.879L869.136,346.823z M877.67,344.104l-7.523,19.659l-1.805-0.01l7.549-19.659L877.67,344.104z
		 M880.882,356.883l-0.018,3.27c-0.004,0.844-0.088,1.48-0.25,1.909c-0.163,0.429-0.509,0.8-1.037,1.113
		c-0.529,0.313-1.228,0.468-2.095,0.463c-0.992-0.005-1.751-0.161-2.276-0.469s-0.879-0.673-1.061-1.096s-0.27-1.024-0.266-1.806
		l0.019-3.422c0.005-0.93,0.104-1.619,0.298-2.067c0.194-0.448,0.565-0.813,1.113-1.096c0.549-0.282,1.225-0.421,2.029-0.417
		c0.898,0.005,1.624,0.165,2.177,0.48c0.554,0.315,0.921,0.692,1.102,1.131C880.799,355.315,880.887,355.984,880.882,356.883z
		 M877.887,356.046c0.003-0.5-0.021-0.811-0.071-0.932c-0.05-0.121-0.188-0.183-0.415-0.184c-0.211-0.001-0.346,0.061-0.405,0.186
		c-0.059,0.124-0.09,0.433-0.093,0.925l-0.025,4.781c-0.003,0.539,0.022,0.863,0.077,0.974c0.054,0.109,0.194,0.165,0.421,0.166
		c0.211,0.001,0.344-0.059,0.399-0.18c0.055-0.121,0.084-0.416,0.087-0.885L877.887,356.046z"/>
</g>
<linearGradient id="SVGID_2_" gradientUnits="userSpaceOnUse" x1="158.7358" y1="237.6764" x2="882.4237" y2="237.6764">
	<stop  offset="0" style="stop-color:#8C4CF6"/>
	<stop  offset="0.063" style="stop-color:#9047F7"/>
	<stop  offset="0.6835" style="stop-color:#B31CFD"/>
	<stop  offset="1" style="stop-color:#C00CFF"/>
</linearGradient>
<polyline fill="none" stroke="url(#SVGID_2_)" stroke-width="15" stroke-miterlimit="10" points="160.956,398 180.648,391.897 
	207.19,385.047 220.033,376.485 239.725,347.375 258.561,347.375 279.109,358.791 302.226,314.84 319.349,272.888 339.042,284.018 
	358.734,283.162 378.426,304.14 397.262,268.607 418.666,280.593 437.502,278.881 494.438,218.948 517.983,208.674 557.367,165.865 
	575.347,196.688 597.608,204.393 617.3,199.256 655.828,130.762 676.376,108.501 716.617,124.769 735.453,157.303 756.001,117.063 
	775.693,123.056 794.529,86.24 815.078,123.912 835.626,103.364 882.365,103 "/>
<polyline fill="none" stroke="#000000" stroke-width="5" stroke-miterlimit="10" points="881.86,46.856 885.284,427 160.956,427 
	160.956,47.712 "/>
</svg>
