<?xml version="1.0" encoding="utf-8"?>
<!-- Generator: Adobe Illustrator 17.0.0, SVG Export Plug-In . SVG Version: 6.00 Build 0)  -->
<!DOCTYPE svg PUBLIC "-//W3C//DTD SVG 1.1//EN" "http://www.w3.org/Graphics/SVG/1.1/DTD/svg11.dtd">
<svg version="1.1" id="Layer_1" xmlns="http://www.w3.org/2000/svg" xmlns:xlink="http://www.w3.org/1999/xlink" x="0px" y="0px"
	 width="1000px" height="1000px" viewBox="0 0 1000 1000" enable-background="new 0 0 1000 1000" xml:space="preserve">
<g>
	<line fill="none" stroke="#CECECE" stroke-miterlimit="10" x1="251.129" y1="75" x2="251.129" y2="454.288"/>
	<line fill="none" stroke="#CECECE" stroke-miterlimit="10" x1="350.446" y1="75" x2="350.446" y2="454.288"/>
	<line fill="none" stroke="#CECECE" stroke-miterlimit="10" x1="449.763" y1="75" x2="449.763" y2="454.288"/>
	<line fill="none" stroke="#CECECE" stroke-miterlimit="10" x1="548.224" y1="75" x2="548.224" y2="454.288"/>
	<line fill="none" stroke="#CECECE" stroke-miterlimit="10" x1="647.54" y1="75" x2="647.54" y2="454.288"/>
	<line fill="none" stroke="#CECECE" stroke-miterlimit="10" x1="746.857" y1="75" x2="746.857" y2="454.288"/>
	<line fill="none" stroke="#CECECE" stroke-miterlimit="10" x1="846.174" y1="75" x2="846.174" y2="454.288"/>
	<line fill="none" stroke="#CECECE" stroke-miterlimit="10" x1="871.86" y1="138.357" x2="148.388" y2="138.357"/>
	<line fill="none" stroke="#CECECE" stroke-miterlimit="10" x1="871.86" y1="200.858" x2="148.388" y2="200.858"/>
	<line fill="none" stroke="#CECECE" stroke-miterlimit="10" x1="871.86" y1="264.644" x2="148.388" y2="264.644"/>
	<line fill="none" stroke="#CECECE" stroke-miterlimit="10" x1="871.86" y1="329.145" x2="148.388" y2="329.145"/>
	<line fill="none" stroke="#CECECE" stroke-miterlimit="10" x1="871.86" y1="391.787" x2="148.388" y2="391.787"/>
</g>
<path fill="#FFFFFF" stroke="#FFFFFF" stroke-miterlimit="10" d="M124.388,376.333"/>
<g>
	<path d="M134.101,464.549v18.973h-4.734V473.35c0-1.469-0.035-2.352-0.105-2.648s-0.264-0.521-0.58-0.674s-1.021-0.229-2.115-0.229
		h-0.469v-2.212c2.289-0.492,4.027-1.505,5.215-3.038H134.101z"/>
	<path d="M135.94,478.482h4.734c0,0.883,0.012,1.439,0.035,1.67s0.119,0.424,0.287,0.58s0.396,0.234,0.686,0.234
		c0.242,0,0.441-0.074,0.598-0.223s0.244-0.34,0.264-0.574s0.029-0.707,0.029-1.418v-3.023c-0.234,0.508-0.586,0.889-1.055,1.143
		s-1.051,0.381-1.746,0.381c-0.867,0-1.633-0.234-2.297-0.703s-1.086-1.031-1.266-1.688s-0.27-1.543-0.27-2.66v-1.512
		c0-1.328,0.053-2.316,0.158-2.965s0.377-1.248,0.814-1.799s1.043-0.979,1.816-1.283s1.672-0.457,2.695-0.457
		c1.266,0,2.305,0.176,3.117,0.527s1.441,0.857,1.887,1.518s0.703,1.354,0.773,2.08s0.105,2.133,0.105,4.219v2.637
		c0,2.258-0.031,3.768-0.094,4.529s-0.334,1.482-0.814,2.162s-1.131,1.189-1.951,1.529s-1.77,0.51-2.848,0.51
		c-1.336,0-2.428-0.215-3.275-0.645s-1.457-1.035-1.828-1.816S135.94,479.67,135.94,478.482z M140.675,472.564
		c0,0.797,0.104,1.289,0.311,1.477s0.42,0.281,0.639,0.281c0.328,0,0.568-0.119,0.721-0.357s0.229-0.705,0.229-1.4v-3.434
		c0-0.836-0.072-1.383-0.217-1.641s-0.385-0.387-0.721-0.387c-0.203,0-0.414,0.1-0.633,0.299s-0.328,0.736-0.328,1.611V472.564z"/>
	<path d="M160.304,469.588h-4.734c0-0.883-0.01-1.439-0.029-1.67s-0.113-0.424-0.281-0.58s-0.396-0.234-0.686-0.234
		c-0.242,0-0.441,0.074-0.598,0.223s-0.246,0.34-0.27,0.574s-0.035,0.707-0.035,1.418v3.023c0.242-0.508,0.598-0.889,1.066-1.143
		s1.047-0.381,1.734-0.381c0.867,0,1.633,0.234,2.297,0.703s1.086,1.031,1.266,1.688s0.27,1.543,0.27,2.66v1.512
		c0,1.328-0.051,2.316-0.152,2.965s-0.373,1.248-0.814,1.799s-1.047,0.979-1.816,1.283s-1.666,0.457-2.689,0.457
		c-1.273,0-2.316-0.176-3.129-0.527s-1.439-0.857-1.881-1.518s-0.699-1.354-0.773-2.08s-0.111-2.137-0.111-4.23v-2.625
		c0-2.258,0.033-3.768,0.1-4.529s0.338-1.482,0.814-2.162s1.127-1.189,1.951-1.529s1.775-0.51,2.854-0.51
		c1.328,0,2.418,0.215,3.27,0.645s1.461,1.035,1.828,1.816S160.304,468.4,160.304,469.588z M155.569,475.506
		c0-0.672-0.074-1.133-0.223-1.383s-0.391-0.375-0.727-0.375c-0.328,0-0.568,0.119-0.721,0.357s-0.229,0.705-0.229,1.4v3.434
		c0,0.836,0.072,1.383,0.217,1.641s0.385,0.387,0.721,0.387c0.203,0,0.414-0.1,0.633-0.299s0.328-0.736,0.328-1.611V475.506z"/>
	<path d="M169.96,464.549v4.134l-3.023,14.839h-4.711l3.369-15.562h-4.682v-3.41H169.96z"/>
</g>
<g>
	<path d="M234.101,464.549v18.973h-4.734V473.35c0-1.469-0.035-2.352-0.105-2.648s-0.264-0.521-0.58-0.674s-1.021-0.229-2.115-0.229
		h-0.469v-2.212c2.289-0.492,4.027-1.505,5.215-3.038H234.101z"/>
	<path d="M235.94,478.482h4.734c0,0.883,0.012,1.439,0.035,1.67s0.119,0.424,0.287,0.58s0.396,0.234,0.686,0.234
		c0.242,0,0.441-0.074,0.598-0.223s0.244-0.34,0.264-0.574s0.029-0.707,0.029-1.418v-3.023c-0.234,0.508-0.586,0.889-1.055,1.143
		s-1.051,0.381-1.746,0.381c-0.867,0-1.633-0.234-2.297-0.703s-1.086-1.031-1.266-1.688s-0.27-1.543-0.27-2.66v-1.512
		c0-1.328,0.053-2.316,0.158-2.965s0.377-1.248,0.814-1.799s1.043-0.979,1.816-1.283s1.672-0.457,2.695-0.457
		c1.266,0,2.305,0.176,3.117,0.527s1.441,0.857,1.887,1.518s0.703,1.354,0.773,2.08s0.105,2.133,0.105,4.219v2.637
		c0,2.258-0.031,3.768-0.094,4.529s-0.334,1.482-0.814,2.162s-1.131,1.189-1.951,1.529s-1.77,0.51-2.848,0.51
		c-1.336,0-2.428-0.215-3.275-0.645s-1.457-1.035-1.828-1.816S235.94,479.67,235.94,478.482z M240.675,472.564
		c0,0.797,0.104,1.289,0.311,1.477s0.42,0.281,0.639,0.281c0.328,0,0.568-0.119,0.721-0.357s0.229-0.705,0.229-1.4v-3.434
		c0-0.836-0.072-1.383-0.217-1.641s-0.385-0.387-0.721-0.387c-0.203,0-0.414,0.1-0.633,0.299s-0.328,0.736-0.328,1.611V472.564z"/>
	<path d="M257.28,464.549v4.134l-3.023,14.839h-4.711l3.369-15.562h-4.682v-3.41H257.28z"/>
	<path d="M267.112,464.549v4.134l-3.023,14.839h-4.711l3.369-15.562h-4.682v-3.41H267.112z"/>
</g>
<g>
	<path d="M334.101,464.549v18.973h-4.734V473.35c0-1.469-0.035-2.352-0.105-2.648s-0.264-0.521-0.58-0.674s-1.021-0.229-2.115-0.229
		h-0.469v-2.212c2.289-0.492,4.027-1.505,5.215-3.038H334.101z"/>
	<path d="M335.94,478.482h4.734c0,0.883,0.012,1.439,0.035,1.67s0.119,0.424,0.287,0.58s0.396,0.234,0.686,0.234
		c0.242,0,0.441-0.074,0.598-0.223s0.244-0.34,0.264-0.574s0.029-0.707,0.029-1.418v-3.023c-0.234,0.508-0.586,0.889-1.055,1.143
		s-1.051,0.381-1.746,0.381c-0.867,0-1.633-0.234-2.297-0.703s-1.086-1.031-1.266-1.688s-0.27-1.543-0.27-2.66v-1.512
		c0-1.328,0.053-2.316,0.158-2.965s0.377-1.248,0.814-1.799s1.043-0.979,1.816-1.283s1.672-0.457,2.695-0.457
		c1.266,0,2.305,0.176,3.117,0.527s1.441,0.857,1.887,1.518s0.703,1.354,0.773,2.08s0.105,2.133,0.105,4.219v2.637
		c0,2.258-0.031,3.768-0.094,4.529s-0.334,1.482-0.814,2.162s-1.131,1.189-1.951,1.529s-1.77,0.51-2.848,0.51
		c-1.336,0-2.428-0.215-3.275-0.645s-1.457-1.035-1.828-1.816S335.94,479.67,335.94,478.482z M340.675,472.564
		c0,0.797,0.104,1.289,0.311,1.477s0.42,0.281,0.639,0.281c0.328,0,0.568-0.119,0.721-0.357s0.229-0.705,0.229-1.4v-3.434
		c0-0.836-0.072-1.383-0.217-1.641s-0.385-0.387-0.721-0.387c-0.203,0-0.414,0.1-0.633,0.299s-0.328,0.736-0.328,1.611V472.564z"/>
	<path d="M357.972,472.758c0.695,0.281,1.23,0.701,1.605,1.261c0.375,0.559,0.562,1.89,0.562,3.992c0,1.532-0.148,2.661-0.445,3.389
		c-0.297,0.727-0.875,1.322-1.734,1.788c-0.859,0.465-2.012,0.697-3.457,0.697c-1.406,0-2.52-0.223-3.34-0.668
		c-0.82-0.446-1.408-1.036-1.764-1.771c-0.355-0.735-0.533-1.958-0.533-3.67c0-1.149,0.088-2.146,0.264-2.99
		c0.176-0.844,0.729-1.521,1.658-2.028c-0.586-0.281-1.025-0.728-1.318-1.341s-0.439-1.392-0.439-2.336
		c0-1.632,0.453-2.855,1.359-3.672c0.906-0.815,2.262-1.224,4.066-1.224c2.086,0,3.527,0.434,4.324,1.3s1.195,2.104,1.195,3.712
		c0,1.023-0.131,1.761-0.393,2.214S358.784,472.312,357.972,472.758z M355.405,476.572c0-0.727-0.074-1.209-0.223-1.447
		s-0.383-0.357-0.703-0.357c-0.312,0-0.537,0.115-0.674,0.346s-0.205,0.717-0.205,1.459v2.461c0,0.82,0.076,1.348,0.229,1.582
		s0.393,0.352,0.721,0.352c0.336,0,0.562-0.119,0.68-0.357s0.176-0.775,0.176-1.611V476.572z M355.312,468.686
		c0-0.641-0.057-1.064-0.17-1.271s-0.33-0.311-0.65-0.311c-0.312,0-0.523,0.111-0.633,0.334s-0.164,0.639-0.164,1.248v1.441
		c0,0.57,0.062,0.965,0.188,1.184s0.336,0.328,0.633,0.328c0.312,0,0.523-0.107,0.633-0.322s0.164-0.658,0.164-1.33V468.686z"/>
	<path d="M371.976,480.287v3.234h-10.418l0.003-2.707c3.086-5.047,4.92-8.17,5.502-9.369s0.873-2.135,0.873-2.807
		c0-0.516-0.088-0.9-0.264-1.154s-0.444-0.381-0.804-0.381s-0.628,0.141-0.804,0.422c-0.176,0.281-0.264,0.84-0.264,1.676v1.805
		h-4.242v-0.691c0-1.062,0.055-1.9,0.164-2.514s0.379-1.217,0.809-1.811s0.988-1.043,1.676-1.348s1.512-0.457,2.473-0.457
		c1.883,0,3.307,0.467,4.271,1.4s1.447,2.115,1.447,3.545c0,1.086-0.271,2.234-0.814,3.445c-0.543,1.211-2.143,3.781-4.799,7.711
		H371.976z"/>
</g>
<g>
	<path d="M433.101,464.549v18.973h-4.734V473.35c0-1.469-0.035-2.352-0.105-2.648s-0.264-0.521-0.58-0.674s-1.021-0.229-2.115-0.229
		h-0.469v-2.212c2.289-0.492,4.027-1.505,5.215-3.038H433.101z"/>
	<path d="M434.94,478.482h4.734c0,0.883,0.012,1.439,0.035,1.67s0.119,0.424,0.287,0.58s0.396,0.234,0.686,0.234
		c0.242,0,0.441-0.074,0.598-0.223s0.244-0.34,0.264-0.574s0.029-0.707,0.029-1.418v-3.023c-0.234,0.508-0.586,0.889-1.055,1.143
		s-1.051,0.381-1.746,0.381c-0.867,0-1.633-0.234-2.297-0.703s-1.086-1.031-1.266-1.688s-0.27-1.543-0.27-2.66v-1.512
		c0-1.328,0.053-2.316,0.158-2.965s0.377-1.248,0.814-1.799s1.043-0.979,1.816-1.283s1.672-0.457,2.695-0.457
		c1.266,0,2.305,0.176,3.117,0.527s1.441,0.857,1.887,1.518s0.703,1.354,0.773,2.08s0.105,2.133,0.105,4.219v2.637
		c0,2.258-0.031,3.768-0.094,4.529s-0.334,1.482-0.814,2.162s-1.131,1.189-1.951,1.529s-1.77,0.51-2.848,0.51
		c-1.336,0-2.428-0.215-3.275-0.645s-1.457-1.035-1.828-1.816S434.94,479.67,434.94,478.482z M439.675,472.564
		c0,0.797,0.104,1.289,0.311,1.477s0.42,0.281,0.639,0.281c0.328,0,0.568-0.119,0.721-0.357s0.229-0.705,0.229-1.4v-3.434
		c0-0.836-0.072-1.383-0.217-1.641s-0.385-0.387-0.721-0.387c-0.203,0-0.414,0.1-0.633,0.299s-0.328,0.736-0.328,1.611V472.564z"/>
	<path d="M456.972,472.758c0.695,0.281,1.23,0.701,1.605,1.261c0.375,0.559,0.562,1.89,0.562,3.992c0,1.532-0.148,2.661-0.445,3.389
		c-0.297,0.727-0.875,1.322-1.734,1.788c-0.859,0.465-2.012,0.697-3.457,0.697c-1.406,0-2.52-0.223-3.34-0.668
		c-0.82-0.446-1.408-1.036-1.764-1.771c-0.355-0.735-0.533-1.958-0.533-3.67c0-1.149,0.088-2.146,0.264-2.99
		c0.176-0.844,0.729-1.521,1.658-2.028c-0.586-0.281-1.025-0.728-1.318-1.341s-0.439-1.392-0.439-2.336
		c0-1.632,0.453-2.855,1.359-3.672c0.906-0.815,2.262-1.224,4.066-1.224c2.086,0,3.527,0.434,4.324,1.3s1.195,2.104,1.195,3.712
		c0,1.023-0.131,1.761-0.393,2.214S457.784,472.312,456.972,472.758z M454.405,476.572c0-0.727-0.074-1.209-0.223-1.447
		s-0.383-0.357-0.703-0.357c-0.312,0-0.537,0.115-0.674,0.346s-0.205,0.717-0.205,1.459v2.461c0,0.82,0.076,1.348,0.229,1.582
		s0.393,0.352,0.721,0.352c0.336,0,0.562-0.119,0.68-0.357s0.176-0.775,0.176-1.611V476.572z M454.312,468.686
		c0-0.641-0.057-1.064-0.17-1.271s-0.33-0.311-0.65-0.311c-0.312,0-0.523,0.111-0.633,0.334s-0.164,0.639-0.164,1.248v1.441
		c0,0.57,0.062,0.965,0.188,1.184s0.336,0.328,0.633,0.328c0.312,0,0.523-0.107,0.633-0.322s0.164-0.658,0.164-1.33V468.686z"/>
	<path d="M469.112,464.549v4.134l-3.023,14.839h-4.711l3.369-15.562h-4.682v-3.41H469.112z"/>
</g>
<g>
	<path d="M531.101,464.549v18.973h-4.734V473.35c0-1.469-0.035-2.352-0.105-2.648s-0.264-0.521-0.58-0.674s-1.021-0.229-2.115-0.229
		h-0.469v-2.212c2.289-0.492,4.027-1.505,5.215-3.038H531.101z"/>
	<path d="M532.94,478.482h4.734c0,0.883,0.012,1.439,0.035,1.67s0.119,0.424,0.287,0.58s0.396,0.234,0.686,0.234
		c0.242,0,0.441-0.074,0.598-0.223s0.244-0.34,0.264-0.574s0.029-0.707,0.029-1.418v-3.023c-0.234,0.508-0.586,0.889-1.055,1.143
		s-1.051,0.381-1.746,0.381c-0.867,0-1.633-0.234-2.297-0.703s-1.086-1.031-1.266-1.688s-0.27-1.543-0.27-2.66v-1.512
		c0-1.328,0.053-2.316,0.158-2.965s0.377-1.248,0.814-1.799s1.043-0.979,1.816-1.283s1.672-0.457,2.695-0.457
		c1.266,0,2.305,0.176,3.117,0.527s1.441,0.857,1.887,1.518s0.703,1.354,0.773,2.08s0.105,2.133,0.105,4.219v2.637
		c0,2.258-0.031,3.768-0.094,4.529s-0.334,1.482-0.814,2.162s-1.131,1.189-1.951,1.529s-1.77,0.51-2.848,0.51
		c-1.336,0-2.428-0.215-3.275-0.645s-1.457-1.035-1.828-1.816S532.94,479.67,532.94,478.482z M537.675,472.564
		c0,0.797,0.104,1.289,0.311,1.477s0.42,0.281,0.639,0.281c0.328,0,0.568-0.119,0.721-0.357s0.229-0.705,0.229-1.4v-3.434
		c0-0.836-0.072-1.383-0.217-1.641s-0.385-0.387-0.721-0.387c-0.203,0-0.414,0.1-0.633,0.299s-0.328,0.736-0.328,1.611V472.564z"/>
	<path d="M545.937,478.482h4.734c0,0.883,0.012,1.439,0.035,1.67s0.119,0.424,0.287,0.58s0.396,0.234,0.686,0.234
		c0.242,0,0.441-0.074,0.598-0.223s0.244-0.34,0.264-0.574s0.029-0.707,0.029-1.418v-3.023c-0.234,0.508-0.586,0.889-1.055,1.143
		s-1.051,0.381-1.746,0.381c-0.867,0-1.633-0.234-2.297-0.703s-1.086-1.031-1.266-1.688s-0.27-1.543-0.27-2.66v-1.512
		c0-1.328,0.053-2.316,0.158-2.965s0.377-1.248,0.814-1.799s1.043-0.979,1.816-1.283s1.672-0.457,2.695-0.457
		c1.266,0,2.305,0.176,3.117,0.527s1.441,0.857,1.887,1.518s0.703,1.354,0.773,2.08s0.105,2.133,0.105,4.219v2.637
		c0,2.258-0.031,3.768-0.094,4.529s-0.334,1.482-0.814,2.162s-1.131,1.189-1.951,1.529s-1.77,0.51-2.848,0.51
		c-1.336,0-2.428-0.215-3.275-0.645s-1.457-1.035-1.828-1.816S545.937,479.67,545.937,478.482z M550.671,472.564
		c0,0.797,0.104,1.289,0.311,1.477s0.42,0.281,0.639,0.281c0.328,0,0.568-0.119,0.721-0.357s0.229-0.705,0.229-1.4v-3.434
		c0-0.836-0.072-1.383-0.217-1.641s-0.385-0.387-0.721-0.387c-0.203,0-0.414,0.1-0.633,0.299s-0.328,0.736-0.328,1.611V472.564z"/>
	<path d="M569.14,480.287v3.234h-10.418l0.003-2.707c3.086-5.047,4.92-8.17,5.502-9.369s0.873-2.135,0.873-2.807
		c0-0.516-0.088-0.9-0.264-1.154c-0.177-0.254-0.444-0.381-0.804-0.381c-0.36,0-0.628,0.141-0.804,0.422
		c-0.177,0.281-0.265,0.84-0.265,1.676v1.805h-4.242v-0.691c0-1.062,0.055-1.9,0.164-2.514s0.379-1.217,0.809-1.811
		s0.988-1.043,1.676-1.348s1.512-0.457,2.473-0.457c1.883,0,3.307,0.467,4.271,1.4s1.447,2.115,1.447,3.545
		c0,1.086-0.271,2.234-0.814,3.445s-2.143,3.781-4.799,7.711H569.14z"/>
</g>
<g>
	<path d="M630.101,464.549v18.973h-4.734V473.35c0-1.469-0.035-2.352-0.105-2.648s-0.264-0.521-0.58-0.674s-1.021-0.229-2.115-0.229
		h-0.469v-2.212c2.289-0.492,4.027-1.505,5.215-3.038H630.101z"/>
	<path d="M631.94,478.482h4.734c0,0.883,0.012,1.439,0.035,1.67s0.119,0.424,0.287,0.58s0.396,0.234,0.686,0.234
		c0.242,0,0.441-0.074,0.598-0.223s0.244-0.34,0.264-0.574s0.029-0.707,0.029-1.418v-3.023c-0.234,0.508-0.586,0.889-1.055,1.143
		s-1.051,0.381-1.746,0.381c-0.867,0-1.633-0.234-2.297-0.703s-1.086-1.031-1.266-1.688s-0.27-1.543-0.27-2.66v-1.512
		c0-1.328,0.053-2.316,0.158-2.965s0.377-1.248,0.814-1.799s1.043-0.979,1.816-1.283s1.672-0.457,2.695-0.457
		c1.266,0,2.305,0.176,3.117,0.527s1.441,0.857,1.887,1.518s0.703,1.354,0.773,2.08s0.105,2.133,0.105,4.219v2.637
		c0,2.258-0.031,3.768-0.094,4.529s-0.334,1.482-0.814,2.162s-1.131,1.189-1.951,1.529s-1.77,0.51-2.848,0.51
		c-1.336,0-2.428-0.215-3.275-0.645s-1.457-1.035-1.828-1.816S631.94,479.67,631.94,478.482z M636.675,472.564
		c0,0.797,0.104,1.289,0.311,1.477s0.42,0.281,0.639,0.281c0.328,0,0.568-0.119,0.721-0.357s0.229-0.705,0.229-1.4v-3.434
		c0-0.836-0.072-1.383-0.217-1.641s-0.385-0.387-0.721-0.387c-0.203,0-0.414,0.1-0.633,0.299s-0.328,0.736-0.328,1.611V472.564z"/>
	<path d="M644.937,478.482h4.734c0,0.883,0.012,1.439,0.035,1.67s0.119,0.424,0.287,0.58s0.396,0.234,0.686,0.234
		c0.242,0,0.441-0.074,0.598-0.223s0.244-0.34,0.264-0.574s0.029-0.707,0.029-1.418v-3.023c-0.234,0.508-0.586,0.889-1.055,1.143
		s-1.051,0.381-1.746,0.381c-0.867,0-1.633-0.234-2.297-0.703s-1.086-1.031-1.266-1.688s-0.27-1.543-0.27-2.66v-1.512
		c0-1.328,0.053-2.316,0.158-2.965s0.377-1.248,0.814-1.799s1.043-0.979,1.816-1.283s1.672-0.457,2.695-0.457
		c1.266,0,2.305,0.176,3.117,0.527s1.441,0.857,1.887,1.518s0.703,1.354,0.773,2.08s0.105,2.133,0.105,4.219v2.637
		c0,2.258-0.031,3.768-0.094,4.529s-0.334,1.482-0.814,2.162s-1.131,1.189-1.951,1.529s-1.77,0.51-2.848,0.51
		c-1.336,0-2.428-0.215-3.275-0.645s-1.457-1.035-1.828-1.816S644.937,479.67,644.937,478.482z M649.671,472.564
		c0,0.797,0.104,1.289,0.311,1.477s0.42,0.281,0.639,0.281c0.328,0,0.568-0.119,0.721-0.357s0.229-0.705,0.229-1.4v-3.434
		c0-0.836-0.072-1.383-0.217-1.641s-0.385-0.387-0.721-0.387c-0.203,0-0.414,0.1-0.633,0.299s-0.328,0.736-0.328,1.611V472.564z"/>
	<path d="M666.276,464.549v4.134l-3.023,14.839h-4.711l3.369-15.562h-4.682v-3.41H666.276z"/>
</g>
<g>
	<path d="M733.007,480.287v3.234h-10.418l0.003-2.707c3.086-5.047,4.92-8.17,5.502-9.369s0.873-2.135,0.873-2.807
		c0-0.516-0.088-0.9-0.264-1.154c-0.177-0.254-0.444-0.381-0.804-0.381c-0.36,0-0.628,0.141-0.804,0.422
		c-0.177,0.281-0.265,0.84-0.265,1.676v1.805h-4.242v-0.691c0-1.062,0.055-1.9,0.164-2.514s0.379-1.217,0.809-1.811
		s0.988-1.043,1.676-1.348s1.512-0.457,2.473-0.457c1.883,0,3.307,0.467,4.271,1.4s1.447,2.115,1.447,3.545
		c0,1.086-0.271,2.234-0.814,3.445s-2.143,3.781-4.799,7.711H733.007z"/>
	<path d="M746.015,470.971v6.328c0,1.438-0.078,2.484-0.234,3.141s-0.48,1.27-0.973,1.84s-1.086,0.98-1.781,1.23
		s-1.473,0.375-2.332,0.375c-1.133,0-2.074-0.131-2.824-0.393s-1.348-0.67-1.793-1.225s-0.762-1.139-0.949-1.752
		s-0.281-1.588-0.281-2.924v-6.621c0-1.742,0.15-3.047,0.451-3.914s0.898-1.562,1.793-2.086s1.979-0.785,3.252-0.785
		c1.039,0,1.969,0.182,2.789,0.545s1.434,0.807,1.84,1.33s0.682,1.113,0.826,1.77S746.015,469.533,746.015,470.971z M741.28,469.377
		c0-1.008-0.049-1.639-0.146-1.893s-0.326-0.381-0.686-0.381c-0.352,0-0.584,0.135-0.697,0.404s-0.17,0.893-0.17,1.869v9.258
		c0,1.102,0.053,1.766,0.158,1.992s0.334,0.34,0.686,0.34s0.582-0.133,0.691-0.398s0.164-0.863,0.164-1.793V469.377z"/>
	<path d="M758.882,470.971v6.328c0,1.438-0.078,2.484-0.234,3.141s-0.48,1.27-0.973,1.84s-1.086,0.98-1.781,1.23
		s-1.473,0.375-2.332,0.375c-1.133,0-2.074-0.131-2.824-0.393s-1.348-0.67-1.793-1.225s-0.762-1.139-0.949-1.752
		s-0.281-1.588-0.281-2.924v-6.621c0-1.742,0.15-3.047,0.451-3.914s0.898-1.562,1.793-2.086s1.979-0.785,3.252-0.785
		c1.039,0,1.969,0.182,2.789,0.545s1.434,0.807,1.84,1.33s0.682,1.113,0.826,1.77S758.882,469.533,758.882,470.971z
		 M754.147,469.377c0-1.008-0.049-1.639-0.146-1.893s-0.326-0.381-0.686-0.381c-0.352,0-0.584,0.135-0.697,0.404
		s-0.17,0.893-0.17,1.869v9.258c0,1.102,0.053,1.766,0.158,1.992s0.334,0.34,0.686,0.34s0.582-0.133,0.691-0.398
		s0.164-0.863,0.164-1.793V469.377z"/>
	<path d="M770.788,480.287v3.234H760.37l0.003-2.707c3.086-5.047,4.92-8.17,5.502-9.369s0.873-2.135,0.873-2.807
		c0-0.516-0.088-0.9-0.264-1.154c-0.177-0.254-0.444-0.381-0.804-0.381c-0.36,0-0.628,0.141-0.804,0.422
		c-0.177,0.281-0.265,0.84-0.265,1.676v1.805h-4.242v-0.691c0-1.062,0.055-1.9,0.164-2.514s0.379-1.217,0.809-1.811
		s0.988-1.043,1.676-1.348s1.512-0.457,2.473-0.457c1.883,0,3.307,0.467,4.271,1.4s1.447,2.115,1.447,3.545
		c0,1.086-0.271,2.234-0.814,3.445s-2.143,3.781-4.799,7.711H770.788z"/>
</g>
<g>
	<path d="M832.007,480.287v3.234h-10.418l0.003-2.707c3.086-5.047,4.92-8.17,5.502-9.369s0.873-2.135,0.873-2.807
		c0-0.516-0.088-0.9-0.264-1.154c-0.177-0.254-0.444-0.381-0.804-0.381c-0.36,0-0.628,0.141-0.804,0.422
		c-0.177,0.281-0.265,0.84-0.265,1.676v1.805h-4.242v-0.691c0-1.062,0.055-1.9,0.164-2.514s0.379-1.217,0.809-1.811
		s0.988-1.043,1.676-1.348s1.512-0.457,2.473-0.457c1.883,0,3.307,0.467,4.271,1.4s1.447,2.115,1.447,3.545
		c0,1.086-0.271,2.234-0.814,3.445s-2.143,3.781-4.799,7.711H832.007z"/>
	<path d="M845.015,470.971v6.328c0,1.438-0.078,2.484-0.234,3.141s-0.48,1.27-0.973,1.84s-1.086,0.98-1.781,1.23
		s-1.473,0.375-2.332,0.375c-1.133,0-2.074-0.131-2.824-0.393s-1.348-0.67-1.793-1.225s-0.762-1.139-0.949-1.752
		s-0.281-1.588-0.281-2.924v-6.621c0-1.742,0.15-3.047,0.451-3.914s0.898-1.562,1.793-2.086s1.979-0.785,3.252-0.785
		c1.039,0,1.969,0.182,2.789,0.545s1.434,0.807,1.84,1.33s0.682,1.113,0.826,1.77S845.015,469.533,845.015,470.971z M840.28,469.377
		c0-1.008-0.049-1.639-0.146-1.893s-0.326-0.381-0.686-0.381c-0.352,0-0.584,0.135-0.697,0.404s-0.17,0.893-0.17,1.869v9.258
		c0,1.102,0.053,1.766,0.158,1.992s0.334,0.34,0.686,0.34s0.582-0.133,0.691-0.398s0.164-0.863,0.164-1.793V469.377z"/>
	<path d="M857.882,470.971v6.328c0,1.438-0.078,2.484-0.234,3.141s-0.48,1.27-0.973,1.84s-1.086,0.98-1.781,1.23
		s-1.473,0.375-2.332,0.375c-1.133,0-2.074-0.131-2.824-0.393s-1.348-0.67-1.793-1.225s-0.762-1.139-0.949-1.752
		s-0.281-1.588-0.281-2.924v-6.621c0-1.742,0.15-3.047,0.451-3.914s0.898-1.562,1.793-2.086s1.979-0.785,3.252-0.785
		c1.039,0,1.969,0.182,2.789,0.545s1.434,0.807,1.84,1.33s0.682,1.113,0.826,1.77S857.882,469.533,857.882,470.971z
		 M853.147,469.377c0-1.008-0.049-1.639-0.146-1.893s-0.326-0.381-0.686-0.381c-0.352,0-0.584,0.135-0.697,0.404
		s-0.17,0.893-0.17,1.869v9.258c0,1.102,0.053,1.766,0.158,1.992s0.334,0.34,0.686,0.34s0.582-0.133,0.691-0.398
		s0.164-0.863,0.164-1.793V469.377z"/>
	<path d="M867.925,464.549v4.134l-3.023,14.839h-4.711l3.369-15.562h-4.682v-3.41H867.925z"/>
</g>
<g>
	<path d="M60.101,65.147V84.12h-4.734V73.948c0-1.469-0.035-2.352-0.105-2.648s-0.264-0.521-0.58-0.674s-1.021-0.229-2.115-0.229
		h-0.469v-2.212c2.289-0.492,4.027-1.505,5.215-3.038H60.101z"/>
	<path d="M65.093,80.253v3.867h-3.574v-3.867H65.093z"/>
	<path d="M76.026,65.147v12.398h1.348v3.234h-1.348v3.34h-4.734v-3.34h-5.625v-3.234l4.09-12.398H76.026z M71.292,77.546v-8.074
		L69.2,77.546H71.292z"/>
	<path d="M88.694,65.147v3.035h-5.871v3.223c0.734-0.867,1.68-1.301,2.836-1.301c1.305,0,2.291,0.365,2.959,1.096
		s1.002,2.135,1.002,4.213v2.707c0,1.344-0.064,2.33-0.193,2.959s-0.404,1.211-0.826,1.746s-1.01,0.945-1.764,1.23
		s-1.674,0.428-2.76,0.428c-1.219,0-2.293-0.213-3.223-0.639s-1.59-1.061-1.98-1.904s-0.586-2.148-0.586-3.914v-1.031h4.734v1.184
		c0,1.227,0.043,2.098,0.129,2.613s0.383,0.773,0.891,0.773c0.234,0,0.424-0.074,0.568-0.223s0.223-0.309,0.234-0.48
		s0.025-0.918,0.041-2.238v-3.762c0-0.711-0.074-1.195-0.223-1.453s-0.395-0.387-0.738-0.387c-0.219,0-0.402,0.066-0.551,0.199
		s-0.244,0.275-0.287,0.428s-0.064,0.506-0.064,1.061h-4.688l0.199-9.562H88.694z"/>
	<path d="M102.405,71.569v6.328c0,1.438-0.078,2.484-0.234,3.141s-0.48,1.27-0.973,1.84s-1.086,0.98-1.781,1.23
		s-1.473,0.375-2.332,0.375c-1.133,0-2.074-0.131-2.824-0.393s-1.348-0.67-1.793-1.225s-0.762-1.139-0.949-1.752
		s-0.281-1.588-0.281-2.924v-6.621c0-1.742,0.15-3.047,0.451-3.914s0.898-1.562,1.793-2.086s1.979-0.785,3.252-0.785
		c1.039,0,1.969,0.182,2.789,0.545s1.434,0.807,1.84,1.33s0.682,1.113,0.826,1.77S102.405,70.132,102.405,71.569z M97.671,69.976
		c0-1.008-0.049-1.639-0.146-1.893s-0.326-0.381-0.686-0.381c-0.352,0-0.584,0.135-0.697,0.404s-0.17,0.893-0.17,1.869v9.258
		c0,1.102,0.053,1.766,0.158,1.992s0.334,0.34,0.686,0.34s0.582-0.133,0.691-0.398s0.164-0.863,0.164-1.793V69.976z"/>
	<path d="M106.858,80.405v1.699c0,0.891-0.105,1.621-0.316,2.191s-0.576,1.055-1.096,1.453s-1.107,0.664-1.764,0.797v-1.359
		c0.469-0.266,0.734-0.621,0.797-1.066h-0.797v-3.715H106.858z"/>
	<path d="M119.304,71.569v6.328c0,1.438-0.078,2.484-0.234,3.141s-0.48,1.27-0.973,1.84s-1.086,0.98-1.781,1.23
		s-1.473,0.375-2.332,0.375c-1.133,0-2.074-0.131-2.824-0.393s-1.348-0.67-1.793-1.225s-0.762-1.139-0.949-1.752
		s-0.281-1.588-0.281-2.924v-6.621c0-1.742,0.15-3.047,0.451-3.914s0.898-1.562,1.793-2.086s1.979-0.785,3.252-0.785
		c1.039,0,1.969,0.182,2.789,0.545s1.434,0.807,1.84,1.33s0.682,1.113,0.826,1.77S119.304,70.132,119.304,71.569z M114.569,69.976
		c0-1.008-0.049-1.639-0.146-1.893s-0.326-0.381-0.686-0.381c-0.352,0-0.584,0.135-0.697,0.404s-0.17,0.893-0.17,1.869v9.258
		c0,1.102,0.053,1.766,0.158,1.992s0.334,0.34,0.686,0.34s0.582-0.133,0.691-0.398s0.164-0.863,0.164-1.793V69.976z"/>
	<path d="M132.171,71.569v6.328c0,1.438-0.078,2.484-0.234,3.141s-0.48,1.27-0.973,1.84s-1.086,0.98-1.781,1.23
		s-1.473,0.375-2.332,0.375c-1.133,0-2.074-0.131-2.824-0.393s-1.348-0.67-1.793-1.225s-0.762-1.139-0.949-1.752
		s-0.281-1.588-0.281-2.924v-6.621c0-1.742,0.15-3.047,0.451-3.914s0.898-1.562,1.793-2.086s1.979-0.785,3.252-0.785
		c1.039,0,1.969,0.182,2.789,0.545s1.434,0.807,1.84,1.33s0.682,1.113,0.826,1.77S132.171,70.132,132.171,71.569z M127.437,69.976
		c0-1.008-0.049-1.639-0.146-1.893s-0.326-0.381-0.686-0.381c-0.352,0-0.584,0.135-0.697,0.404s-0.17,0.893-0.17,1.869v9.258
		c0,1.102,0.053,1.766,0.158,1.992s0.334,0.34,0.686,0.34s0.582-0.133,0.691-0.398s0.164-0.863,0.164-1.793V69.976z"/>
	<path d="M145.038,71.569v6.328c0,1.438-0.078,2.484-0.234,3.141s-0.48,1.27-0.973,1.84s-1.086,0.98-1.781,1.23
		s-1.473,0.375-2.332,0.375c-1.133,0-2.074-0.131-2.824-0.393s-1.348-0.67-1.793-1.225s-0.762-1.139-0.949-1.752
		s-0.281-1.588-0.281-2.924v-6.621c0-1.742,0.15-3.047,0.451-3.914s0.898-1.562,1.793-2.086s1.979-0.785,3.252-0.785
		c1.039,0,1.969,0.182,2.789,0.545s1.434,0.807,1.84,1.33s0.682,1.113,0.826,1.77S145.038,70.132,145.038,71.569z M140.304,69.976
		c0-1.008-0.049-1.639-0.146-1.893s-0.326-0.381-0.686-0.381c-0.352,0-0.584,0.135-0.697,0.404s-0.17,0.893-0.17,1.869v9.258
		c0,1.102,0.053,1.766,0.158,1.992s0.334,0.34,0.686,0.34s0.582-0.133,0.691-0.398s0.164-0.863,0.164-1.793V69.976z"/>
</g>
<g>
	<path d="M60.101,129.147v18.973h-4.734v-10.172c0-1.469-0.035-2.352-0.105-2.648s-0.264-0.521-0.58-0.674s-1.021-0.229-2.115-0.229
		h-0.469v-2.212c2.289-0.492,4.027-1.505,5.215-3.038H60.101z"/>
	<path d="M65.093,144.253v3.867h-3.574v-3.867H65.093z"/>
	<path d="M76.577,144.886v3.234H66.159l0.003-2.707c3.086-5.047,4.92-8.17,5.502-9.369s0.873-2.135,0.873-2.807
		c0-0.516-0.088-0.9-0.264-1.154c-0.177-0.254-0.444-0.381-0.804-0.381c-0.36,0-0.628,0.141-0.804,0.422
		c-0.177,0.281-0.265,0.84-0.265,1.676v1.805h-4.242v-0.691c0-1.062,0.055-1.9,0.164-2.514s0.379-1.217,0.809-1.811
		s0.988-1.043,1.676-1.348s1.512-0.457,2.473-0.457c1.883,0,3.307,0.467,4.271,1.4s1.447,2.115,1.447,3.545
		c0,1.086-0.271,2.234-0.814,3.445s-2.143,3.781-4.799,7.711H76.577z"/>
	<path d="M89.585,135.569v6.328c0,1.438-0.078,2.484-0.234,3.141s-0.48,1.27-0.973,1.84s-1.086,0.98-1.781,1.23
		s-1.473,0.375-2.332,0.375c-1.133,0-2.074-0.131-2.824-0.393s-1.348-0.67-1.793-1.225s-0.762-1.139-0.949-1.752
		s-0.281-1.588-0.281-2.924v-6.621c0-1.742,0.15-3.047,0.451-3.914s0.898-1.562,1.793-2.086s1.979-0.785,3.252-0.785
		c1.039,0,1.969,0.182,2.789,0.545s1.434,0.807,1.84,1.33s0.682,1.113,0.826,1.77S89.585,134.132,89.585,135.569z M84.851,133.976
		c0-1.008-0.049-1.639-0.146-1.893s-0.326-0.381-0.686-0.381c-0.352,0-0.584,0.135-0.697,0.404s-0.17,0.893-0.17,1.869v9.258
		c0,1.102,0.053,1.766,0.158,1.992s0.334,0.34,0.686,0.34s0.582-0.133,0.691-0.398s0.164-0.863,0.164-1.793V133.976z"/>
	<path d="M102.452,135.569v6.328c0,1.438-0.078,2.484-0.234,3.141s-0.48,1.27-0.973,1.84s-1.086,0.98-1.781,1.23
		s-1.473,0.375-2.332,0.375c-1.133,0-2.074-0.131-2.824-0.393s-1.348-0.67-1.793-1.225s-0.762-1.139-0.949-1.752
		s-0.281-1.588-0.281-2.924v-6.621c0-1.742,0.15-3.047,0.451-3.914s0.898-1.562,1.793-2.086s1.979-0.785,3.252-0.785
		c1.039,0,1.969,0.182,2.789,0.545s1.434,0.807,1.84,1.33s0.682,1.113,0.826,1.77S102.452,134.132,102.452,135.569z M97.718,133.976
		c0-1.008-0.049-1.639-0.146-1.893s-0.326-0.381-0.686-0.381c-0.352,0-0.584,0.135-0.697,0.404s-0.17,0.893-0.17,1.869v9.258
		c0,1.102,0.053,1.766,0.158,1.992s0.334,0.34,0.686,0.34s0.582-0.133,0.691-0.398s0.164-0.863,0.164-1.793V133.976z"/>
	<path d="M106.905,144.405v1.699c0,0.891-0.105,1.621-0.316,2.191s-0.576,1.055-1.096,1.453s-1.107,0.664-1.764,0.797v-1.359
		c0.469-0.266,0.734-0.621,0.797-1.066h-0.797v-3.715H106.905z"/>
	<path d="M119.351,135.569v6.328c0,1.438-0.078,2.484-0.234,3.141s-0.48,1.27-0.973,1.84s-1.086,0.98-1.781,1.23
		s-1.473,0.375-2.332,0.375c-1.133,0-2.074-0.131-2.824-0.393s-1.348-0.67-1.793-1.225s-0.762-1.139-0.949-1.752
		s-0.281-1.588-0.281-2.924v-6.621c0-1.742,0.15-3.047,0.451-3.914s0.898-1.562,1.793-2.086s1.979-0.785,3.252-0.785
		c1.039,0,1.969,0.182,2.789,0.545s1.434,0.807,1.84,1.33s0.682,1.113,0.826,1.77S119.351,134.132,119.351,135.569z
		 M114.616,133.976c0-1.008-0.049-1.639-0.146-1.893s-0.326-0.381-0.686-0.381c-0.352,0-0.584,0.135-0.697,0.404
		s-0.17,0.893-0.17,1.869v9.258c0,1.102,0.053,1.766,0.158,1.992s0.334,0.34,0.686,0.34s0.582-0.133,0.691-0.398
		s0.164-0.863,0.164-1.793V133.976z"/>
	<path d="M132.218,135.569v6.328c0,1.438-0.078,2.484-0.234,3.141s-0.48,1.27-0.973,1.84s-1.086,0.98-1.781,1.23
		s-1.473,0.375-2.332,0.375c-1.133,0-2.074-0.131-2.824-0.393s-1.348-0.67-1.793-1.225s-0.762-1.139-0.949-1.752
		s-0.281-1.588-0.281-2.924v-6.621c0-1.742,0.15-3.047,0.451-3.914s0.898-1.562,1.793-2.086s1.979-0.785,3.252-0.785
		c1.039,0,1.969,0.182,2.789,0.545s1.434,0.807,1.84,1.33s0.682,1.113,0.826,1.77S132.218,134.132,132.218,135.569z
		 M127.483,133.976c0-1.008-0.049-1.639-0.146-1.893s-0.326-0.381-0.686-0.381c-0.352,0-0.584,0.135-0.697,0.404
		s-0.17,0.893-0.17,1.869v9.258c0,1.102,0.053,1.766,0.158,1.992s0.334,0.34,0.686,0.34s0.582-0.133,0.691-0.398
		s0.164-0.863,0.164-1.793V133.976z"/>
	<path d="M145.085,135.569v6.328c0,1.438-0.078,2.484-0.234,3.141s-0.48,1.27-0.973,1.84s-1.086,0.98-1.781,1.23
		s-1.473,0.375-2.332,0.375c-1.133,0-2.074-0.131-2.824-0.393s-1.348-0.67-1.793-1.225s-0.762-1.139-0.949-1.752
		s-0.281-1.588-0.281-2.924v-6.621c0-1.742,0.15-3.047,0.451-3.914s0.898-1.562,1.793-2.086s1.979-0.785,3.252-0.785
		c1.039,0,1.969,0.182,2.789,0.545s1.434,0.807,1.84,1.33s0.682,1.113,0.826,1.77S145.085,134.132,145.085,135.569z
		 M140.351,133.976c0-1.008-0.049-1.639-0.146-1.893s-0.326-0.381-0.686-0.381c-0.352,0-0.584,0.135-0.697,0.404
		s-0.17,0.893-0.17,1.869v9.258c0,1.102,0.053,1.766,0.158,1.992s0.334,0.34,0.686,0.34s0.582-0.133,0.691-0.398
		s0.164-0.863,0.164-1.793V133.976z"/>
</g>
<g>
	<path d="M77.007,396.886v3.234H66.589l0.003-2.707c3.086-5.047,4.92-8.17,5.502-9.369s0.873-2.135,0.873-2.807
		c0-0.516-0.088-0.9-0.264-1.154c-0.177-0.254-0.444-0.381-0.804-0.381c-0.36,0-0.628,0.141-0.804,0.422
		c-0.177,0.281-0.265,0.84-0.265,1.676v1.805h-4.242v-0.691c0-1.062,0.055-1.9,0.164-2.514s0.379-1.217,0.809-1.811
		s0.988-1.043,1.676-1.348s1.512-0.457,2.473-0.457c1.883,0,3.307,0.467,4.271,1.4s1.447,2.115,1.447,3.545
		c0,1.086-0.271,2.234-0.814,3.445s-2.143,3.781-4.799,7.711H77.007z"/>
	<path d="M90.015,387.569v6.328c0,1.438-0.078,2.484-0.234,3.141s-0.48,1.27-0.973,1.84s-1.086,0.98-1.781,1.23
		s-1.473,0.375-2.332,0.375c-1.133,0-2.074-0.131-2.824-0.393s-1.348-0.67-1.793-1.225s-0.762-1.139-0.949-1.752
		s-0.281-1.588-0.281-2.924v-6.621c0-1.742,0.15-3.047,0.451-3.914s0.898-1.562,1.793-2.086s1.979-0.785,3.252-0.785
		c1.039,0,1.969,0.182,2.789,0.545s1.434,0.807,1.84,1.33s0.682,1.113,0.826,1.77S90.015,386.132,90.015,387.569z M85.28,385.976
		c0-1.008-0.049-1.639-0.146-1.893s-0.326-0.381-0.686-0.381c-0.352,0-0.584,0.135-0.697,0.404s-0.17,0.893-0.17,1.869v9.258
		c0,1.102,0.053,1.766,0.158,1.992s0.334,0.34,0.686,0.34s0.582-0.133,0.691-0.398s0.164-0.863,0.164-1.793V385.976z"/>
	<path d="M102.882,387.569v6.328c0,1.438-0.078,2.484-0.234,3.141s-0.48,1.27-0.973,1.84s-1.086,0.98-1.781,1.23
		s-1.473,0.375-2.332,0.375c-1.133,0-2.074-0.131-2.824-0.393s-1.348-0.67-1.793-1.225s-0.762-1.139-0.949-1.752
		s-0.281-1.588-0.281-2.924v-6.621c0-1.742,0.15-3.047,0.451-3.914s0.898-1.562,1.793-2.086s1.979-0.785,3.252-0.785
		c1.039,0,1.969,0.182,2.789,0.545s1.434,0.807,1.84,1.33s0.682,1.113,0.826,1.77S102.882,386.132,102.882,387.569z M98.147,385.976
		c0-1.008-0.049-1.639-0.146-1.893s-0.326-0.381-0.686-0.381c-0.352,0-0.584,0.135-0.697,0.404s-0.17,0.893-0.17,1.869v9.258
		c0,1.102,0.053,1.766,0.158,1.992s0.334,0.34,0.686,0.34s0.582-0.133,0.691-0.398s0.164-0.863,0.164-1.793V385.976z"/>
	<path d="M107.335,396.405v1.699c0,0.891-0.105,1.621-0.316,2.191s-0.576,1.055-1.096,1.453s-1.107,0.664-1.764,0.797v-1.359
		c0.469-0.266,0.734-0.621,0.797-1.066h-0.797v-3.715H107.335z"/>
	<path d="M119.78,387.569v6.328c0,1.438-0.078,2.484-0.234,3.141s-0.48,1.27-0.973,1.84s-1.086,0.98-1.781,1.23
		s-1.473,0.375-2.332,0.375c-1.133,0-2.074-0.131-2.824-0.393s-1.348-0.67-1.793-1.225s-0.762-1.139-0.949-1.752
		s-0.281-1.588-0.281-2.924v-6.621c0-1.742,0.15-3.047,0.451-3.914s0.898-1.562,1.793-2.086s1.979-0.785,3.252-0.785
		c1.039,0,1.969,0.182,2.789,0.545s1.434,0.807,1.84,1.33s0.682,1.113,0.826,1.77S119.78,386.132,119.78,387.569z M115.046,385.976
		c0-1.008-0.049-1.639-0.146-1.893s-0.326-0.381-0.686-0.381c-0.352,0-0.584,0.135-0.697,0.404s-0.17,0.893-0.17,1.869v9.258
		c0,1.102,0.053,1.766,0.158,1.992s0.334,0.34,0.686,0.34s0.582-0.133,0.691-0.398s0.164-0.863,0.164-1.793V385.976z"/>
	<path d="M132.647,387.569v6.328c0,1.438-0.078,2.484-0.234,3.141s-0.48,1.27-0.973,1.84s-1.086,0.98-1.781,1.23
		s-1.473,0.375-2.332,0.375c-1.133,0-2.074-0.131-2.824-0.393s-1.348-0.67-1.793-1.225s-0.762-1.139-0.949-1.752
		s-0.281-1.588-0.281-2.924v-6.621c0-1.742,0.15-3.047,0.451-3.914s0.898-1.562,1.793-2.086s1.979-0.785,3.252-0.785
		c1.039,0,1.969,0.182,2.789,0.545s1.434,0.807,1.84,1.33s0.682,1.113,0.826,1.77S132.647,386.132,132.647,387.569z
		 M127.913,385.976c0-1.008-0.049-1.639-0.146-1.893s-0.326-0.381-0.686-0.381c-0.352,0-0.584,0.135-0.697,0.404
		s-0.17,0.893-0.17,1.869v9.258c0,1.102,0.053,1.766,0.158,1.992s0.334,0.34,0.686,0.34s0.582-0.133,0.691-0.398
		s0.164-0.863,0.164-1.793V385.976z"/>
	<path d="M145.515,387.569v6.328c0,1.438-0.078,2.484-0.234,3.141s-0.48,1.27-0.973,1.84s-1.086,0.98-1.781,1.23
		s-1.473,0.375-2.332,0.375c-1.133,0-2.074-0.131-2.824-0.393s-1.348-0.67-1.793-1.225s-0.762-1.139-0.949-1.752
		s-0.281-1.588-0.281-2.924v-6.621c0-1.742,0.15-3.047,0.451-3.914s0.898-1.562,1.793-2.086s1.979-0.785,3.252-0.785
		c1.039,0,1.969,0.182,2.789,0.545s1.434,0.807,1.84,1.33s0.682,1.113,0.826,1.77S145.515,386.132,145.515,387.569z M140.78,385.976
		c0-1.008-0.049-1.639-0.146-1.893s-0.326-0.381-0.686-0.381c-0.352,0-0.584,0.135-0.697,0.404s-0.17,0.893-0.17,1.869v9.258
		c0,1.102,0.053,1.766,0.158,1.992s0.334,0.34,0.686,0.34s0.582-0.133,0.691-0.398s0.164-0.863,0.164-1.793V385.976z"/>
</g>
<g>
	<path d="M76.456,317.172v12.398h1.348v3.234h-1.348v3.34h-4.734v-3.34h-5.625v-3.234l4.09-12.398H76.456z M71.722,329.571v-8.074
		l-2.092,8.074H71.722z"/>
	<path d="M89.124,317.172v3.035h-5.871v3.223c0.734-0.867,1.68-1.301,2.836-1.301c1.305,0,2.291,0.365,2.959,1.096
		s1.002,2.135,1.002,4.213v2.707c0,1.344-0.064,2.33-0.193,2.959s-0.404,1.211-0.826,1.746s-1.01,0.945-1.764,1.23
		s-1.674,0.428-2.76,0.428c-1.219,0-2.293-0.213-3.223-0.639s-1.59-1.061-1.98-1.904s-0.586-2.148-0.586-3.914v-1.031h4.734v1.184
		c0,1.227,0.043,2.098,0.129,2.613s0.383,0.773,0.891,0.773c0.234,0,0.424-0.074,0.568-0.223s0.223-0.309,0.234-0.48
		s0.025-0.918,0.041-2.238v-3.762c0-0.711-0.074-1.195-0.223-1.453s-0.395-0.387-0.738-0.387c-0.219,0-0.402,0.066-0.551,0.199
		s-0.244,0.275-0.287,0.428s-0.064,0.506-0.064,1.061h-4.688l0.199-9.562H89.124z"/>
	<path d="M102.835,323.594v6.328c0,1.438-0.078,2.484-0.234,3.141s-0.48,1.27-0.973,1.84s-1.086,0.98-1.781,1.23
		s-1.473,0.375-2.332,0.375c-1.133,0-2.074-0.131-2.824-0.393s-1.348-0.67-1.793-1.225s-0.762-1.139-0.949-1.752
		s-0.281-1.588-0.281-2.924v-6.621c0-1.742,0.15-3.047,0.451-3.914s0.898-1.562,1.793-2.086s1.979-0.785,3.252-0.785
		c1.039,0,1.969,0.182,2.789,0.545s1.434,0.807,1.84,1.33s0.682,1.113,0.826,1.77S102.835,322.157,102.835,323.594z M98.101,322
		c0-1.008-0.049-1.639-0.146-1.893s-0.326-0.381-0.686-0.381c-0.352,0-0.584,0.135-0.697,0.404s-0.17,0.893-0.17,1.869v9.258
		c0,1.102,0.053,1.766,0.158,1.992s0.334,0.34,0.686,0.34s0.582-0.133,0.691-0.398s0.164-0.863,0.164-1.793V322z"/>
	<path d="M107.288,332.43v1.699c0,0.891-0.105,1.621-0.316,2.191s-0.576,1.055-1.096,1.453s-1.107,0.664-1.764,0.797v-1.359
		c0.469-0.266,0.734-0.621,0.797-1.066h-0.797v-3.715H107.288z"/>
	<path d="M119.733,323.594v6.328c0,1.438-0.078,2.484-0.234,3.141s-0.48,1.27-0.973,1.84s-1.086,0.98-1.781,1.23
		s-1.473,0.375-2.332,0.375c-1.133,0-2.074-0.131-2.824-0.393s-1.348-0.67-1.793-1.225s-0.762-1.139-0.949-1.752
		s-0.281-1.588-0.281-2.924v-6.621c0-1.742,0.15-3.047,0.451-3.914s0.898-1.562,1.793-2.086s1.979-0.785,3.252-0.785
		c1.039,0,1.969,0.182,2.789,0.545s1.434,0.807,1.84,1.33s0.682,1.113,0.826,1.77S119.733,322.157,119.733,323.594z M114.999,322
		c0-1.008-0.049-1.639-0.146-1.893s-0.326-0.381-0.686-0.381c-0.352,0-0.584,0.135-0.697,0.404s-0.17,0.893-0.17,1.869v9.258
		c0,1.102,0.053,1.766,0.158,1.992s0.334,0.34,0.686,0.34s0.582-0.133,0.691-0.398s0.164-0.863,0.164-1.793V322z"/>
	<path d="M132.601,323.594v6.328c0,1.438-0.078,2.484-0.234,3.141s-0.48,1.27-0.973,1.84s-1.086,0.98-1.781,1.23
		s-1.473,0.375-2.332,0.375c-1.133,0-2.074-0.131-2.824-0.393s-1.348-0.67-1.793-1.225s-0.762-1.139-0.949-1.752
		s-0.281-1.588-0.281-2.924v-6.621c0-1.742,0.15-3.047,0.451-3.914s0.898-1.562,1.793-2.086s1.979-0.785,3.252-0.785
		c1.039,0,1.969,0.182,2.789,0.545s1.434,0.807,1.84,1.33s0.682,1.113,0.826,1.77S132.601,322.157,132.601,323.594z M127.866,322
		c0-1.008-0.049-1.639-0.146-1.893s-0.326-0.381-0.686-0.381c-0.352,0-0.584,0.135-0.697,0.404s-0.17,0.893-0.17,1.869v9.258
		c0,1.102,0.053,1.766,0.158,1.992s0.334,0.34,0.686,0.34s0.582-0.133,0.691-0.398s0.164-0.863,0.164-1.793V322z"/>
	<path d="M145.468,323.594v6.328c0,1.438-0.078,2.484-0.234,3.141s-0.48,1.27-0.973,1.84s-1.086,0.98-1.781,1.23
		s-1.473,0.375-2.332,0.375c-1.133,0-2.074-0.131-2.824-0.393s-1.348-0.67-1.793-1.225s-0.762-1.139-0.949-1.752
		s-0.281-1.588-0.281-2.924v-6.621c0-1.742,0.15-3.047,0.451-3.914s0.898-1.562,1.793-2.086s1.979-0.785,3.252-0.785
		c1.039,0,1.969,0.182,2.789,0.545s1.434,0.807,1.84,1.33s0.682,1.113,0.826,1.77S145.468,322.157,145.468,323.594z M140.733,322
		c0-1.008-0.049-1.639-0.146-1.893s-0.326-0.381-0.686-0.381c-0.352,0-0.584,0.135-0.697,0.404s-0.17,0.893-0.17,1.869v9.258
		c0,1.102,0.053,1.766,0.158,1.992s0.334,0.34,0.686,0.34s0.582-0.133,0.691-0.398s0.164-0.863,0.164-1.793V322z"/>
</g>
<g>
	<path d="M75.144,257.147v4.134L72.12,276.12h-4.711l3.369-15.562h-4.682v-3.41H75.144z"/>
	<path d="M87.366,263.569v6.328c0,1.438-0.078,2.484-0.234,3.141s-0.48,1.27-0.973,1.84s-1.086,0.98-1.781,1.23
		s-1.473,0.375-2.332,0.375c-1.133,0-2.074-0.131-2.824-0.393s-1.348-0.67-1.793-1.225s-0.762-1.139-0.949-1.752
		s-0.281-1.588-0.281-2.924v-6.621c0-1.742,0.15-3.047,0.451-3.914s0.898-1.562,1.793-2.086s1.979-0.785,3.252-0.785
		c1.039,0,1.969,0.182,2.789,0.545s1.434,0.807,1.84,1.33s0.682,1.113,0.826,1.77S87.366,262.132,87.366,263.569z M82.632,261.976
		c0-1.008-0.049-1.639-0.146-1.893s-0.326-0.381-0.686-0.381c-0.352,0-0.584,0.135-0.697,0.404s-0.17,0.893-0.17,1.869v9.258
		c0,1.102,0.053,1.766,0.158,1.992s0.334,0.34,0.686,0.34s0.582-0.133,0.691-0.398s0.164-0.863,0.164-1.793V261.976z"/>
	<path d="M100.233,263.569v6.328c0,1.438-0.078,2.484-0.234,3.141s-0.48,1.27-0.973,1.84s-1.086,0.98-1.781,1.23
		s-1.473,0.375-2.332,0.375c-1.133,0-2.074-0.131-2.824-0.393s-1.348-0.67-1.793-1.225s-0.762-1.139-0.949-1.752
		s-0.281-1.588-0.281-2.924v-6.621c0-1.742,0.15-3.047,0.451-3.914s0.898-1.562,1.793-2.086s1.979-0.785,3.252-0.785
		c1.039,0,1.969,0.182,2.789,0.545s1.434,0.807,1.84,1.33s0.682,1.113,0.826,1.77S100.233,262.132,100.233,263.569z M95.499,261.976
		c0-1.008-0.049-1.639-0.146-1.893s-0.326-0.381-0.686-0.381c-0.352,0-0.584,0.135-0.697,0.404s-0.17,0.893-0.17,1.869v9.258
		c0,1.102,0.053,1.766,0.158,1.992s0.334,0.34,0.686,0.34s0.582-0.133,0.691-0.398s0.164-0.863,0.164-1.793V261.976z"/>
	<path d="M104.687,272.405v1.699c0,0.891-0.105,1.621-0.316,2.191s-0.576,1.055-1.096,1.453s-1.107,0.664-1.764,0.797v-1.359
		c0.469-0.266,0.734-0.621,0.797-1.066h-0.797v-3.715H104.687z"/>
	<path d="M117.132,263.569v6.328c0,1.438-0.078,2.484-0.234,3.141s-0.48,1.27-0.973,1.84s-1.086,0.98-1.781,1.23
		s-1.473,0.375-2.332,0.375c-1.133,0-2.074-0.131-2.824-0.393s-1.348-0.67-1.793-1.225s-0.762-1.139-0.949-1.752
		s-0.281-1.588-0.281-2.924v-6.621c0-1.742,0.15-3.047,0.451-3.914s0.898-1.562,1.793-2.086s1.979-0.785,3.252-0.785
		c1.039,0,1.969,0.182,2.789,0.545s1.434,0.807,1.84,1.33s0.682,1.113,0.826,1.77S117.132,262.132,117.132,263.569z
		 M112.397,261.976c0-1.008-0.049-1.639-0.146-1.893s-0.326-0.381-0.686-0.381c-0.352,0-0.584,0.135-0.697,0.404
		s-0.17,0.893-0.17,1.869v9.258c0,1.102,0.053,1.766,0.158,1.992s0.334,0.34,0.686,0.34s0.582-0.133,0.691-0.398
		s0.164-0.863,0.164-1.793V261.976z"/>
	<path d="M129.999,263.569v6.328c0,1.438-0.078,2.484-0.234,3.141s-0.48,1.27-0.973,1.84s-1.086,0.98-1.781,1.23
		s-1.473,0.375-2.332,0.375c-1.133,0-2.074-0.131-2.824-0.393s-1.348-0.67-1.793-1.225s-0.762-1.139-0.949-1.752
		s-0.281-1.588-0.281-2.924v-6.621c0-1.742,0.15-3.047,0.451-3.914s0.898-1.562,1.793-2.086s1.979-0.785,3.252-0.785
		c1.039,0,1.969,0.182,2.789,0.545s1.434,0.807,1.84,1.33s0.682,1.113,0.826,1.77S129.999,262.132,129.999,263.569z
		 M125.265,261.976c0-1.008-0.049-1.639-0.146-1.893s-0.326-0.381-0.686-0.381c-0.352,0-0.584,0.135-0.697,0.404
		s-0.17,0.893-0.17,1.869v9.258c0,1.102,0.053,1.766,0.158,1.992s0.334,0.34,0.686,0.34s0.582-0.133,0.691-0.398
		s0.164-0.863,0.164-1.793V261.976z"/>
	<path d="M142.866,263.569v6.328c0,1.438-0.078,2.484-0.234,3.141s-0.48,1.27-0.973,1.84s-1.086,0.98-1.781,1.23
		s-1.473,0.375-2.332,0.375c-1.133,0-2.074-0.131-2.824-0.393s-1.348-0.67-1.793-1.225s-0.762-1.139-0.949-1.752
		s-0.281-1.588-0.281-2.924v-6.621c0-1.742,0.15-3.047,0.451-3.914s0.898-1.562,1.793-2.086s1.979-0.785,3.252-0.785
		c1.039,0,1.969,0.182,2.789,0.545s1.434,0.807,1.84,1.33s0.682,1.113,0.826,1.77S142.866,262.132,142.866,263.569z
		 M138.132,261.976c0-1.008-0.049-1.639-0.146-1.893s-0.326-0.381-0.686-0.381c-0.352,0-0.584,0.135-0.697,0.404
		s-0.17,0.893-0.17,1.869v9.258c0,1.102,0.053,1.766,0.158,1.992s0.334,0.34,0.686,0.34s0.582-0.133,0.691-0.398
		s0.164-0.863,0.164-1.793V261.976z"/>
</g>
<g>
	<path d="M66.8,208.081h4.734c0,0.883,0.012,1.439,0.035,1.67s0.119,0.424,0.287,0.58s0.396,0.234,0.686,0.234
		c0.242,0,0.441-0.074,0.598-0.223s0.244-0.34,0.264-0.574s0.029-0.707,0.029-1.418v-3.023c-0.234,0.508-0.586,0.889-1.055,1.143
		s-1.051,0.381-1.746,0.381c-0.867,0-1.633-0.234-2.297-0.703s-1.086-1.031-1.266-1.688s-0.27-1.543-0.27-2.66v-1.512
		c0-1.328,0.053-2.316,0.158-2.965s0.377-1.248,0.814-1.799s1.043-0.979,1.816-1.283s1.672-0.457,2.695-0.457
		c1.266,0,2.305,0.176,3.117,0.527s1.441,0.857,1.887,1.518s0.703,1.354,0.773,2.08s0.105,2.133,0.105,4.219v2.637
		c0,2.258-0.031,3.768-0.094,4.529s-0.334,1.482-0.814,2.162s-1.131,1.189-1.951,1.529s-1.77,0.51-2.848,0.51
		c-1.336,0-2.428-0.215-3.275-0.645s-1.457-1.035-1.828-1.816S66.8,209.269,66.8,208.081z M71.534,202.163
		c0,0.797,0.104,1.289,0.311,1.477s0.42,0.281,0.639,0.281c0.328,0,0.568-0.119,0.721-0.357s0.229-0.705,0.229-1.4v-3.434
		c0-0.836-0.072-1.383-0.217-1.641s-0.385-0.387-0.721-0.387c-0.203,0-0.414,0.1-0.633,0.299s-0.328,0.736-0.328,1.611V202.163z"/>
	<path d="M90.132,194.147v3.035h-5.871v3.223c0.734-0.867,1.68-1.301,2.836-1.301c1.305,0,2.291,0.365,2.959,1.096
		s1.002,2.135,1.002,4.213v2.707c0,1.344-0.064,2.33-0.193,2.959s-0.404,1.211-0.826,1.746s-1.01,0.945-1.764,1.23
		s-1.674,0.428-2.76,0.428c-1.219,0-2.293-0.213-3.223-0.639s-1.59-1.061-1.98-1.904s-0.586-2.148-0.586-3.914v-1.031h4.734v1.184
		c0,1.227,0.043,2.098,0.129,2.613s0.383,0.773,0.891,0.773c0.234,0,0.424-0.074,0.568-0.223s0.223-0.309,0.234-0.48
		s0.025-0.918,0.041-2.238v-3.762c0-0.711-0.074-1.195-0.223-1.453s-0.395-0.387-0.738-0.387c-0.219,0-0.402,0.066-0.551,0.199
		s-0.244,0.275-0.287,0.428s-0.064,0.506-0.064,1.061h-4.688l0.199-9.562H90.132z"/>
	<path d="M103.843,200.569v6.328c0,1.438-0.078,2.484-0.234,3.141s-0.48,1.27-0.973,1.84s-1.086,0.98-1.781,1.23
		s-1.473,0.375-2.332,0.375c-1.133,0-2.074-0.131-2.824-0.393s-1.348-0.67-1.793-1.225s-0.762-1.139-0.949-1.752
		s-0.281-1.588-0.281-2.924v-6.621c0-1.742,0.15-3.047,0.451-3.914s0.898-1.562,1.793-2.086s1.979-0.785,3.252-0.785
		c1.039,0,1.969,0.182,2.789,0.545s1.434,0.807,1.84,1.33s0.682,1.113,0.826,1.77S103.843,199.132,103.843,200.569z M99.108,198.976
		c0-1.008-0.049-1.639-0.146-1.893s-0.326-0.381-0.686-0.381c-0.352,0-0.584,0.135-0.697,0.404s-0.17,0.893-0.17,1.869v9.258
		c0,1.102,0.053,1.766,0.158,1.992s0.334,0.34,0.686,0.34s0.582-0.133,0.691-0.398s0.164-0.863,0.164-1.793V198.976z"/>
	<path d="M108.296,209.405v1.699c0,0.891-0.105,1.621-0.316,2.191s-0.576,1.055-1.096,1.453s-1.107,0.664-1.764,0.797v-1.359
		c0.469-0.266,0.734-0.621,0.797-1.066h-0.797v-3.715H108.296z"/>
	<path d="M120.741,200.569v6.328c0,1.438-0.078,2.484-0.234,3.141s-0.48,1.27-0.973,1.84s-1.086,0.98-1.781,1.23
		s-1.473,0.375-2.332,0.375c-1.133,0-2.074-0.131-2.824-0.393s-1.348-0.67-1.793-1.225s-0.762-1.139-0.949-1.752
		s-0.281-1.588-0.281-2.924v-6.621c0-1.742,0.15-3.047,0.451-3.914s0.898-1.562,1.793-2.086s1.979-0.785,3.252-0.785
		c1.039,0,1.969,0.182,2.789,0.545s1.434,0.807,1.84,1.33s0.682,1.113,0.826,1.77S120.741,199.132,120.741,200.569z
		 M116.007,198.976c0-1.008-0.049-1.639-0.146-1.893s-0.326-0.381-0.686-0.381c-0.352,0-0.584,0.135-0.697,0.404
		s-0.17,0.893-0.17,1.869v9.258c0,1.102,0.053,1.766,0.158,1.992s0.334,0.34,0.686,0.34s0.582-0.133,0.691-0.398
		s0.164-0.863,0.164-1.793V198.976z"/>
	<path d="M133.608,200.569v6.328c0,1.438-0.078,2.484-0.234,3.141s-0.48,1.27-0.973,1.84s-1.086,0.98-1.781,1.23
		s-1.473,0.375-2.332,0.375c-1.133,0-2.074-0.131-2.824-0.393s-1.348-0.67-1.793-1.225s-0.762-1.139-0.949-1.752
		s-0.281-1.588-0.281-2.924v-6.621c0-1.742,0.15-3.047,0.451-3.914s0.898-1.562,1.793-2.086s1.979-0.785,3.252-0.785
		c1.039,0,1.969,0.182,2.789,0.545s1.434,0.807,1.84,1.33s0.682,1.113,0.826,1.77S133.608,199.132,133.608,200.569z
		 M128.874,198.976c0-1.008-0.049-1.639-0.146-1.893s-0.326-0.381-0.686-0.381c-0.352,0-0.584,0.135-0.697,0.404
		s-0.17,0.893-0.17,1.869v9.258c0,1.102,0.053,1.766,0.158,1.992s0.334,0.34,0.686,0.34s0.582-0.133,0.691-0.398
		s0.164-0.863,0.164-1.793V198.976z"/>
	<path d="M146.476,200.569v6.328c0,1.438-0.078,2.484-0.234,3.141s-0.48,1.27-0.973,1.84s-1.086,0.98-1.781,1.23
		s-1.473,0.375-2.332,0.375c-1.133,0-2.074-0.131-2.824-0.393s-1.348-0.67-1.793-1.225s-0.762-1.139-0.949-1.752
		s-0.281-1.588-0.281-2.924v-6.621c0-1.742,0.15-3.047,0.451-3.914s0.898-1.562,1.793-2.086s1.979-0.785,3.252-0.785
		c1.039,0,1.969,0.182,2.789,0.545s1.434,0.807,1.84,1.33s0.682,1.113,0.826,1.77S146.476,199.132,146.476,200.569z
		 M141.741,198.976c0-1.008-0.049-1.639-0.146-1.893s-0.326-0.381-0.686-0.381c-0.352,0-0.584,0.135-0.697,0.404
		s-0.17,0.893-0.17,1.869v9.258c0,1.102,0.053,1.766,0.158,1.992s0.334,0.34,0.686,0.34s0.582-0.133,0.691-0.398
		s0.164-0.863,0.164-1.793V198.976z"/>
</g>
<g>
	<path d="M388.266,40.974l2.821,18.973h-5.042l-0.265-3.41h-1.765l-0.297,3.41h-5.101l2.517-18.973H388.266z M385.651,53.173
		c-0.25-2.148-0.5-4.805-0.751-7.969c-0.502,3.633-0.818,6.289-0.947,7.969H385.651z"/>
	<path d="M403.128,40.974l-2.511,18.973h-7.494l-2.851-18.973h5.203c0.604,5.227,1.036,9.648,1.295,13.266
		c0.255-3.656,0.525-6.902,0.812-9.737l0.343-3.528H403.128z"/>
	<path d="M403.96,40.974h8.227v3.797h-3.293v3.598h3.082v3.609h-3.082v4.172h3.621v3.797h-8.555V40.974z"/>
	<path d="M413.933,40.974h3.492c2.328,0,3.904,0.09,4.729,0.27s1.496,0.639,2.016,1.377s0.779,1.916,0.779,3.533
		c0,1.477-0.184,2.469-0.551,2.977s-1.09,0.812-2.168,0.914c0.977,0.242,1.633,0.566,1.969,0.973s0.545,0.779,0.627,1.119
		s0.123,1.275,0.123,2.807v5.004h-4.582v-6.305c0-1.016-0.08-1.645-0.24-1.887s-0.58-0.363-1.26-0.363v8.555h-4.934V40.974z
		 M418.867,44.22v4.219c0.555,0,0.943-0.076,1.166-0.229s0.334-0.646,0.334-1.482v-1.043c0-0.602-0.107-0.996-0.322-1.184
		S419.437,44.22,418.867,44.22z"/>
	<path d="M435.387,40.974l2.821,18.973h-5.042l-0.265-3.41h-1.765l-0.297,3.41h-5.101l2.517-18.973H435.387z M432.772,53.173
		c-0.25-2.148-0.5-4.805-0.751-7.969c-0.502,3.633-0.818,6.289-0.947,7.969H432.772z"/>
	<path d="M450.367,47.958h-4.934v-1.723c0-1.086-0.047-1.766-0.141-2.039s-0.316-0.41-0.668-0.41c-0.305,0-0.512,0.117-0.621,0.352
		s-0.164,0.836-0.164,1.805v9.105c0,0.852,0.055,1.412,0.164,1.682s0.328,0.404,0.656,0.404c0.359,0,0.604-0.152,0.732-0.457
		s0.193-0.898,0.193-1.781v-2.25h-0.996v-2.883h5.777v10.184h-3.101l-0.456-1.359c-0.336,0.586-0.76,1.025-1.272,1.318
		s-1.116,0.439-1.812,0.439c-0.829,0-1.605-0.201-2.328-0.604c-0.724-0.402-1.272-0.9-1.648-1.494s-0.61-1.217-0.704-1.869
		s-0.141-1.631-0.141-2.936v-5.637c0-1.812,0.098-3.129,0.293-3.949s0.756-1.572,1.682-2.256s2.123-1.025,3.592-1.025
		c1.445,0,2.645,0.297,3.598,0.891s1.574,1.299,1.863,2.115s0.434,2.002,0.434,3.557V47.958z"/>
	<path d="M452.277,40.974h8.227v3.797h-3.293v3.598h3.082v3.609h-3.082v4.172h3.621v3.797h-8.555V40.974z"/>
	<path d="M471.414,40.974v18.973h-4.934V40.974H471.414z"/>
	<path d="M484.41,40.974v18.973h-4.324l-2.566-8.625v8.625h-4.125V40.974h4.125l2.766,8.543v-8.543H484.41z"/>
	<path d="M497.91,49.236h-4.934v-3.298c0-0.958-0.053-1.557-0.158-1.795c-0.105-0.237-0.338-0.356-0.697-0.356
		c-0.406,0-0.664,0.145-0.773,0.434s-0.164,0.914-0.164,1.875v8.812c0,0.922,0.055,1.523,0.164,1.805s0.355,0.422,0.738,0.422
		c0.367,0,0.607-0.141,0.721-0.423s0.17-0.943,0.17-1.985v-2.385h4.934v0.739c0,1.964-0.139,3.356-0.416,4.178
		c-0.277,0.822-0.891,1.542-1.84,2.16s-2.119,0.927-3.51,0.927c-1.445,0-2.637-0.262-3.574-0.785s-1.559-1.248-1.863-2.174
		s-0.457-2.318-0.457-4.178v-5.543c0-1.367,0.047-2.393,0.141-3.076s0.373-1.342,0.838-1.975s1.109-1.131,1.934-1.494
		s1.771-0.545,2.842-0.545c1.453,0,2.652,0.281,3.598,0.843s1.566,1.262,1.863,2.101s0.445,2.144,0.445,3.914V49.236z"/>
	<path d="M510.952,52.083c0,1.906-0.045,3.256-0.135,4.049s-0.371,1.518-0.844,2.174s-1.111,1.16-1.916,1.512
		s-1.742,0.527-2.812,0.527c-1.016,0-1.928-0.166-2.736-0.498s-1.459-0.83-1.951-1.494s-0.785-1.387-0.878-2.168
		s-0.141-2.148-0.141-4.102v-3.246c0-1.906,0.045-3.256,0.135-4.049s0.371-1.518,0.843-2.174s1.111-1.16,1.916-1.512
		s1.742-0.527,2.812-0.527c1.016,0,1.928,0.166,2.736,0.498s1.459,0.83,1.951,1.494s0.785,1.387,0.879,2.168
		s0.141,2.148,0.141,4.102V52.083z M506.019,45.849c0-0.883-0.049-1.447-0.146-1.693s-0.299-0.369-0.604-0.369
		c-0.258,0-0.455,0.1-0.592,0.299s-0.205,0.787-0.205,1.764v8.859c0,1.102,0.045,1.781,0.135,2.039s0.299,0.387,0.627,0.387
		c0.336,0,0.551-0.148,0.645-0.445s0.141-1.004,0.141-2.121V45.849z"/>
	<path d="M528.015,40.974v18.973h-4.312l-0.006-12.809l-1.717,12.809h-3.059l-1.811-12.516l-0.006,12.516h-4.312V40.974h6.384
		c0.189,1.141,0.385,2.485,0.586,4.033l0.7,4.826l1.134-8.859H528.015z"/>
	<path d="M529.995,40.974h8.227v3.797h-3.293v3.598h3.082v3.609h-3.082v4.172h3.621v3.797h-8.555V40.974z"/>
	<path d="M551.358,40.974v18.973h-4.734V49.775c0-1.469-0.035-2.352-0.105-2.648s-0.264-0.521-0.58-0.674s-1.021-0.229-2.115-0.229
		h-0.469v-2.212c2.289-0.492,4.027-1.505,5.215-3.038H551.358z"/>
	<path d="M553.198,54.908h4.734c0,0.883,0.012,1.439,0.035,1.67s0.119,0.424,0.287,0.58s0.396,0.234,0.686,0.234
		c0.242,0,0.441-0.074,0.598-0.223s0.244-0.34,0.264-0.574s0.029-0.707,0.029-1.418v-3.023c-0.234,0.508-0.586,0.889-1.055,1.143
		s-1.051,0.381-1.746,0.381c-0.867,0-1.633-0.234-2.297-0.703s-1.086-1.031-1.266-1.688s-0.27-1.543-0.27-2.66v-1.512
		c0-1.328,0.053-2.316,0.158-2.965s0.377-1.248,0.814-1.799s1.043-0.979,1.816-1.283s1.672-0.457,2.695-0.457
		c1.266,0,2.305,0.176,3.117,0.527s1.441,0.857,1.887,1.518s0.703,1.354,0.773,2.08s0.105,2.133,0.105,4.219v2.637
		c0,2.258-0.031,3.768-0.094,4.529s-0.334,1.482-0.814,2.162s-1.131,1.189-1.951,1.529s-1.77,0.51-2.848,0.51
		c-1.336,0-2.428-0.215-3.275-0.645s-1.457-1.035-1.828-1.816S553.198,56.095,553.198,54.908z M557.933,48.99
		c0,0.797,0.104,1.289,0.311,1.477s0.42,0.281,0.639,0.281c0.328,0,0.568-0.119,0.721-0.357s0.229-0.705,0.229-1.4v-3.434
		c0-0.836-0.072-1.383-0.217-1.641s-0.385-0.387-0.721-0.387c-0.203,0-0.414,0.1-0.633,0.299s-0.328,0.736-0.328,1.611V48.99z"/>
	<path d="M577.562,46.013h-4.734c0-0.883-0.01-1.439-0.029-1.67s-0.113-0.424-0.281-0.58s-0.396-0.234-0.686-0.234
		c-0.242,0-0.441,0.074-0.598,0.223s-0.246,0.34-0.27,0.574s-0.035,0.707-0.035,1.418v3.023c0.242-0.508,0.598-0.889,1.066-1.143
		s1.047-0.381,1.734-0.381c0.867,0,1.633,0.234,2.297,0.703s1.086,1.031,1.266,1.688s0.27,1.543,0.27,2.66v1.512
		c0,1.328-0.051,2.316-0.152,2.965s-0.373,1.248-0.814,1.799s-1.047,0.979-1.816,1.283s-1.666,0.457-2.689,0.457
		c-1.273,0-2.316-0.176-3.129-0.527s-1.439-0.857-1.881-1.518s-0.699-1.354-0.773-2.08s-0.111-2.137-0.111-4.23V49.33
		c0-2.258,0.033-3.768,0.1-4.529s0.338-1.482,0.814-2.162s1.127-1.189,1.951-1.529s1.775-0.51,2.854-0.51
		c1.328,0,2.418,0.215,3.27,0.645s1.461,1.035,1.828,1.816S577.562,44.826,577.562,46.013z M572.827,51.931
		c0-0.672-0.074-1.133-0.223-1.383s-0.391-0.375-0.727-0.375c-0.328,0-0.568,0.119-0.721,0.357s-0.229,0.705-0.229,1.4v3.434
		c0,0.836,0.072,1.383,0.217,1.641s0.385,0.387,0.721,0.387c0.203,0,0.414-0.1,0.633-0.299s0.328-0.736,0.328-1.611V51.931z"/>
	<path d="M587.218,40.974v4.134l-3.023,14.839h-4.711l3.369-15.562h-4.682v-3.41H587.218z"/>
	<path d="M598.304,50.537v3.27h-6.223v-3.27H598.304z"/>
	<path d="M614.007,56.712v3.234h-10.418l0.003-2.707c3.086-5.047,4.92-8.17,5.502-9.369s0.873-2.135,0.873-2.807
		c0-0.516-0.088-0.9-0.264-1.154c-0.177-0.254-0.444-0.381-0.804-0.381c-0.36,0-0.628,0.141-0.804,0.422
		c-0.177,0.281-0.265,0.84-0.265,1.676v1.805h-4.242V46.74c0-1.062,0.055-1.9,0.164-2.514s0.379-1.217,0.809-1.811
		s0.988-1.043,1.676-1.348s1.512-0.457,2.473-0.457c1.883,0,3.307,0.467,4.271,1.4s1.447,2.115,1.447,3.545
		c0,1.086-0.271,2.234-0.814,3.445s-2.143,3.781-4.799,7.711H614.007z"/>
	<path d="M627.015,47.396v6.328c0,1.438-0.078,2.484-0.234,3.141s-0.48,1.27-0.973,1.84s-1.086,0.98-1.781,1.23
		s-1.473,0.375-2.332,0.375c-1.133,0-2.074-0.131-2.824-0.393s-1.348-0.67-1.793-1.225s-0.762-1.139-0.949-1.752
		s-0.281-1.588-0.281-2.924v-6.621c0-1.742,0.15-3.047,0.451-3.914s0.898-1.562,1.793-2.086s1.979-0.785,3.252-0.785
		c1.039,0,1.969,0.182,2.789,0.545s1.434,0.807,1.84,1.33s0.682,1.113,0.826,1.77S627.015,45.958,627.015,47.396z M622.28,45.802
		c0-1.008-0.049-1.639-0.146-1.893s-0.326-0.381-0.686-0.381c-0.352,0-0.584,0.135-0.697,0.404s-0.17,0.893-0.17,1.869v9.258
		c0,1.102,0.053,1.766,0.158,1.992s0.334,0.34,0.686,0.34s0.582-0.133,0.691-0.398s0.164-0.863,0.164-1.793V45.802z"/>
	<path d="M639.882,47.396v6.328c0,1.438-0.078,2.484-0.234,3.141s-0.48,1.27-0.973,1.84s-1.086,0.98-1.781,1.23
		s-1.473,0.375-2.332,0.375c-1.133,0-2.074-0.131-2.824-0.393s-1.348-0.67-1.793-1.225s-0.762-1.139-0.949-1.752
		s-0.281-1.588-0.281-2.924v-6.621c0-1.742,0.15-3.047,0.451-3.914s0.898-1.562,1.793-2.086s1.979-0.785,3.252-0.785
		c1.039,0,1.969,0.182,2.789,0.545s1.434,0.807,1.84,1.33s0.682,1.113,0.826,1.77S639.882,45.958,639.882,47.396z M635.147,45.802
		c0-1.008-0.049-1.639-0.146-1.893s-0.326-0.381-0.686-0.381c-0.352,0-0.584,0.135-0.697,0.404s-0.17,0.893-0.17,1.869v9.258
		c0,1.102,0.053,1.766,0.158,1.992s0.334,0.34,0.686,0.34s0.582-0.133,0.691-0.398s0.164-0.863,0.164-1.793V45.802z"/>
	<path d="M649.925,40.974v4.134l-3.023,14.839h-4.711l3.369-15.562h-4.682v-3.41H649.925z"/>
</g>
<g>
	<path d="M732.879,203.885v3.797h-2.93v15.176h-4.934v-15.176h-2.918v-3.797H732.879z"/>
	<path d="M745.277,214.995c0,1.906-0.045,3.256-0.135,4.049s-0.371,1.518-0.844,2.174s-1.111,1.16-1.916,1.512
		s-1.742,0.527-2.812,0.527c-1.016,0-1.928-0.166-2.736-0.498s-1.459-0.83-1.951-1.494s-0.785-1.387-0.879-2.168
		s-0.141-2.148-0.141-4.102v-3.246c0-1.906,0.045-3.256,0.135-4.049s0.371-1.518,0.844-2.174s1.111-1.16,1.916-1.512
		s1.742-0.527,2.812-0.527c1.016,0,1.928,0.166,2.736,0.498s1.459,0.83,1.951,1.494s0.785,1.387,0.879,2.168
		s0.141,2.148,0.141,4.102V214.995z M740.344,208.76c0-0.883-0.049-1.447-0.146-1.693s-0.299-0.369-0.604-0.369
		c-0.258,0-0.455,0.1-0.592,0.299s-0.205,0.787-0.205,1.764v8.859c0,1.102,0.045,1.781,0.135,2.039s0.299,0.387,0.627,0.387
		c0.336,0,0.551-0.148,0.645-0.445s0.141-1.004,0.141-2.121V208.76z"/>
	<path d="M747.117,203.885h4.969c1.344,0,2.377,0.105,3.1,0.316s1.266,0.516,1.629,0.914s0.609,0.881,0.738,1.447
		s0.193,1.443,0.193,2.631v1.652c0,1.211-0.125,2.094-0.375,2.648s-0.709,0.98-1.377,1.277s-1.541,0.445-2.619,0.445h-1.324v7.641
		h-4.934V203.885z M752.051,207.131v4.828c0.141,0.008,0.262,0.012,0.363,0.012c0.453,0,0.768-0.111,0.943-0.334
		s0.264-0.686,0.264-1.389v-1.559c0-0.648-0.102-1.07-0.305-1.266S752.691,207.131,752.051,207.131z"/>
	<path d="M770.555,203.885v18.973h-4.734v-10.172c0-1.469-0.035-2.352-0.105-2.648s-0.264-0.521-0.58-0.674
		s-1.021-0.229-2.115-0.229h-0.469v-2.212c2.289-0.492,4.027-1.505,5.215-3.038H770.555z"/>
	<path d="M778.957,207.12v3.258c0,0.852-0.08,1.49-0.24,1.916s-0.504,0.797-1.031,1.113s-1.225,0.475-2.092,0.475
		c-1,0-1.762-0.15-2.285-0.451s-0.877-0.662-1.061-1.084s-0.275-1.027-0.275-1.816v-3.41c0-0.938,0.096-1.631,0.287-2.08
		s0.561-0.814,1.107-1.096s1.223-0.422,2.027-0.422c0.891,0,1.613,0.154,2.168,0.463s0.926,0.682,1.113,1.119
		S778.957,206.213,778.957,207.12z M775.957,206.288c0-0.5-0.025-0.809-0.076-0.926s-0.189-0.176-0.416-0.176
		c-0.211,0-0.348,0.062-0.41,0.188s-0.094,0.43-0.094,0.914v4.781c0,0.547,0.027,0.875,0.082,0.984s0.199,0.164,0.434,0.164
		c0.203,0,0.334-0.062,0.393-0.188s0.088-0.418,0.088-0.879V206.288z M784.477,203.522l-7.418,19.699h-1.805l7.443-19.699H784.477z
		 M787.758,216.284v3.27c0,0.844-0.08,1.48-0.24,1.91s-0.504,0.803-1.031,1.119s-1.225,0.475-2.092,0.475
		c-0.992,0-1.752-0.152-2.279-0.457s-0.883-0.668-1.066-1.09s-0.275-1.023-0.275-1.805v-3.422c0-0.93,0.096-1.619,0.287-2.068
		s0.561-0.816,1.107-1.102s1.223-0.428,2.027-0.428c0.898,0,1.625,0.156,2.18,0.469s0.924,0.688,1.107,1.125
		S787.758,215.385,787.758,216.284z M784.758,215.463c0-0.5-0.025-0.811-0.076-0.932s-0.189-0.182-0.416-0.182
		c-0.211,0-0.346,0.062-0.404,0.188s-0.088,0.434-0.088,0.926v4.781c0,0.539,0.027,0.863,0.082,0.973s0.195,0.164,0.422,0.164
		c0.211,0,0.344-0.061,0.398-0.182s0.082-0.416,0.082-0.885V215.463z"/>
</g>
<g>
	<path d="M717.942,372.818l4.922,0.026c1.555,0.009,2.732,0.136,3.531,0.383c0.8,0.246,1.443,0.739,1.932,1.479
		s0.729,1.93,0.72,3.569c-0.006,1.109-0.185,1.881-0.534,2.316s-1.037,0.768-2.062,0.996c1.14,0.264,1.911,0.696,2.313,1.297
		c0.403,0.6,0.602,1.518,0.595,2.752l-0.009,1.759c-0.008,1.282-0.159,2.231-0.455,2.848c-0.297,0.616-0.766,1.036-1.407,1.259
		c-0.642,0.224-1.955,0.329-3.939,0.318l-5.707-0.03L717.942,372.818z M722.82,383.262l-0.028,5.309
		c0.695-0.02,1.14-0.127,1.332-0.32c0.192-0.194,0.29-0.675,0.295-1.44l0.009-1.77c0.005-0.812-0.078-1.305-0.25-1.478
		C724.007,383.39,723.555,383.29,722.82,383.262z M722.859,376.09l-0.023,4.219c0.211-0.007,0.375-0.01,0.492-0.009
		c0.484,0.003,0.794-0.115,0.928-0.353c0.135-0.237,0.204-0.919,0.211-2.044c0.003-0.594-0.05-1.01-0.158-1.249
		c-0.107-0.238-0.249-0.39-0.425-0.453S723.366,376.101,722.859,376.09z"/>
	<path d="M742.41,384.059c-0.011,1.906-0.062,3.256-0.156,4.048c-0.095,0.793-0.38,1.516-0.855,2.17
		c-0.477,0.653-1.118,1.153-1.925,1.501s-1.745,0.518-2.814,0.513c-1.016-0.006-1.927-0.177-2.733-0.513
		c-0.808-0.337-1.455-0.839-1.943-1.505c-0.489-0.667-0.778-1.392-0.867-2.173c-0.09-0.782-0.129-2.149-0.119-4.103l0.018-3.246
		c0.011-1.906,0.062-3.256,0.156-4.048c0.095-0.793,0.38-1.516,0.855-2.169c0.477-0.654,1.118-1.154,1.925-1.502
		c0.807-0.347,1.745-0.518,2.815-0.512c1.015,0.005,1.926,0.176,2.732,0.513c0.807,0.336,1.455,0.838,1.943,1.504
		c0.488,0.667,0.777,1.392,0.867,2.173c0.09,0.782,0.129,2.149,0.119,4.103L742.41,384.059z M737.511,377.798
		c0.004-0.883-0.041-1.447-0.138-1.694s-0.297-0.371-0.602-0.372c-0.258-0.002-0.456,0.097-0.594,0.295
		c-0.138,0.199-0.209,0.786-0.214,1.763l-0.048,8.859c-0.006,1.102,0.035,1.782,0.124,2.04c0.088,0.259,0.296,0.389,0.624,0.39
		c0.336,0.002,0.552-0.145,0.647-0.441c0.096-0.296,0.146-1.003,0.152-2.12L737.511,377.798z"/>
	<path d="M754.247,373.013l-0.021,3.797l-2.93-0.016l-0.081,15.176l-4.934-0.027l0.081-15.176l-2.918-0.016l0.021-3.797
		L754.247,373.013z"/>
	<path d="M765.31,373.073l-0.021,3.797l-2.93-0.017l-0.081,15.176l-4.934-0.026l0.081-15.176l-2.918-0.016l0.021-3.797
		L765.31,373.073z"/>
	<path d="M777.647,384.249c-0.01,1.906-0.062,3.255-0.156,4.048c-0.094,0.792-0.379,1.516-0.855,2.169
		c-0.477,0.654-1.117,1.154-1.924,1.502c-0.807,0.347-1.745,0.518-2.815,0.512c-1.016-0.005-1.927-0.176-2.733-0.513
		c-0.807-0.336-1.454-0.838-1.943-1.504c-0.488-0.667-0.777-1.392-0.867-2.173c-0.089-0.782-0.129-2.149-0.118-4.103l0.018-3.246
		c0.01-1.906,0.062-3.256,0.156-4.048c0.094-0.793,0.379-1.516,0.855-2.17c0.476-0.653,1.117-1.154,1.924-1.501
		c0.807-0.348,1.745-0.519,2.815-0.513c1.016,0.006,1.927,0.177,2.733,0.513c0.807,0.337,1.454,0.838,1.943,1.505
		c0.488,0.667,0.777,1.391,0.867,2.173c0.089,0.781,0.129,2.149,0.118,4.103L777.647,384.249z M772.748,377.988
		c0.004-0.883-0.041-1.448-0.138-1.694c-0.097-0.247-0.297-0.371-0.602-0.373c-0.258-0.001-0.456,0.098-0.593,0.296
		c-0.138,0.198-0.21,0.786-0.215,1.763l-0.048,8.859c-0.006,1.102,0.036,1.781,0.124,2.04c0.089,0.258,0.296,0.388,0.624,0.39
		c0.336,0.002,0.552-0.146,0.647-0.441c0.096-0.297,0.146-1.003,0.152-2.12L772.748,377.988z"/>
	<path d="M794.77,373.231l-0.102,18.973l-4.312-0.023l0.062-12.809l-1.785,12.799l-3.059-0.016l-1.743-12.525l-0.073,12.516
		l-4.312-0.023l0.102-18.973l6.384,0.034c0.184,1.142,0.372,2.487,0.564,4.036l0.675,4.83l1.181-8.854L794.77,373.231z"/>
	<path d="M811.176,373.319l-0.017,3.035l-5.87-0.032l-0.018,3.223c0.738-0.862,1.687-1.291,2.843-1.285
		c1.305,0.007,2.289,0.378,2.953,1.111c0.664,0.734,0.99,2.141,0.979,4.219l-0.014,2.707c-0.008,1.344-0.077,2.329-0.21,2.958
		c-0.132,0.628-0.41,1.209-0.835,1.741c-0.425,0.533-1.016,0.94-1.771,1.222c-0.756,0.28-1.676,0.418-2.762,0.412
		c-1.219-0.006-2.292-0.225-3.219-0.655c-0.928-0.431-1.585-1.069-1.971-1.915s-0.574-2.151-0.564-3.917l0.005-1.031l4.734,0.025
		l-0.007,1.184c-0.007,1.227,0.032,2.098,0.115,2.613c0.083,0.517,0.379,0.775,0.887,0.778c0.234,0.001,0.424-0.071,0.569-0.22
		c0.146-0.147,0.224-0.307,0.236-0.479s0.03-0.918,0.054-2.238l0.02-3.762c0.004-0.711-0.067-1.196-0.215-1.454
		c-0.146-0.259-0.392-0.39-0.735-0.391c-0.219-0.002-0.403,0.063-0.553,0.196c-0.148,0.132-0.245,0.273-0.289,0.426
		s-0.067,0.506-0.07,1.061l-4.687-0.025l0.25-9.562L811.176,373.319z"/>
	<path d="M824.853,379.814l-0.034,6.328c-0.008,1.438-0.092,2.484-0.252,3.14c-0.159,0.655-0.487,1.267-0.982,1.835
		c-0.495,0.567-1.091,0.975-1.787,1.221c-0.697,0.246-1.475,0.367-2.334,0.362c-1.133-0.006-2.074-0.143-2.822-0.408
		c-0.749-0.266-1.345-0.677-1.787-1.233c-0.442-0.558-0.755-1.144-0.939-1.758s-0.272-1.589-0.266-2.925l0.036-6.621
		c0.009-1.742,0.166-3.046,0.472-3.912c0.306-0.865,0.907-1.558,1.805-2.076c0.896-0.519,1.982-0.774,3.256-0.768
		c1.039,0.006,1.968,0.192,2.786,0.56c0.818,0.368,1.429,0.814,1.833,1.34c0.403,0.526,0.675,1.117,0.816,1.774
		C824.793,377.33,824.859,378.376,824.853,379.814z M820.126,378.195c0.006-1.008-0.04-1.639-0.136-1.894
		c-0.097-0.254-0.324-0.382-0.684-0.384c-0.352-0.002-0.585,0.131-0.699,0.4c-0.115,0.269-0.175,0.892-0.181,1.868l-0.05,9.258
		c-0.006,1.102,0.044,1.766,0.147,1.993c0.104,0.227,0.333,0.341,0.685,0.343s0.582-0.129,0.693-0.395
		c0.11-0.265,0.169-0.862,0.174-1.792L820.126,378.195z"/>
	<path d="M833.131,376.671l-0.018,3.258c-0.005,0.852-0.088,1.489-0.25,1.914c-0.163,0.425-0.509,0.794-1.038,1.108
		c-0.528,0.313-1.227,0.468-2.094,0.463c-1-0.005-1.761-0.16-2.283-0.463c-0.521-0.304-0.873-0.667-1.055-1.09
		c-0.181-0.423-0.27-1.029-0.266-1.818l0.019-3.41c0.005-0.938,0.104-1.63,0.299-2.078c0.193-0.448,0.564-0.812,1.113-1.09
		c0.548-0.278,1.225-0.415,2.029-0.411c0.891,0.005,1.612,0.163,2.165,0.475c0.554,0.312,0.923,0.687,1.107,1.125
		C833.046,375.092,833.136,375.765,833.131,376.671z M830.136,375.823c0.002-0.5-0.021-0.809-0.071-0.926
		c-0.051-0.118-0.188-0.177-0.415-0.179c-0.211-0.001-0.349,0.061-0.411,0.186c-0.063,0.125-0.097,0.43-0.099,0.914l-0.026,4.781
		c-0.003,0.547,0.023,0.875,0.077,0.984s0.198,0.165,0.433,0.166c0.203,0.002,0.334-0.061,0.394-0.185
		c0.06-0.125,0.09-0.418,0.093-0.879L830.136,375.823z M838.67,373.103l-7.523,19.659l-1.805-0.01l7.549-19.659L838.67,373.103z
		 M841.882,385.882l-0.018,3.27c-0.004,0.844-0.088,1.48-0.25,1.909c-0.163,0.429-0.509,0.8-1.037,1.113
		c-0.529,0.313-1.228,0.468-2.095,0.463c-0.992-0.005-1.751-0.161-2.276-0.469s-0.879-0.673-1.061-1.096s-0.27-1.024-0.266-1.806
		l0.019-3.422c0.005-0.93,0.104-1.619,0.298-2.067c0.194-0.448,0.565-0.813,1.113-1.096c0.549-0.282,1.225-0.421,2.029-0.417
		c0.898,0.005,1.624,0.165,2.177,0.48c0.554,0.315,0.921,0.692,1.102,1.131C841.799,384.315,841.887,384.984,841.882,385.882z
		 M838.887,385.045c0.003-0.5-0.021-0.811-0.071-0.932c-0.05-0.121-0.188-0.183-0.415-0.184c-0.211-0.001-0.346,0.061-0.405,0.186
		c-0.059,0.124-0.09,0.433-0.093,0.925l-0.025,4.781c-0.003,0.539,0.022,0.863,0.077,0.974c0.054,0.109,0.194,0.165,0.421,0.166
		c0.211,0.001,0.344-0.059,0.399-0.18c0.055-0.121,0.084-0.416,0.087-0.885L838.887,385.045z"/>
</g>
<linearGradient id="SVGID_1_" gradientUnits="userSpaceOnUse" x1="150.9562" y1="207.068" x2="844.5" y2="207.068">
	<stop  offset="0" style="stop-color:#8C4CF6"/>
	<stop  offset="0.063" style="stop-color:#9047F7"/>
	<stop  offset="0.6835" style="stop-color:#B31CFD"/>
	<stop  offset="1" style="stop-color:#C00CFF"/>
</linearGradient>
<polyline fill="none" stroke="url(#SVGID_1_)" stroke-width="15" stroke-miterlimit="10" points="150.956,326 162,326 194,306 
	231,333.145 261,319.572 306,327 319.248,333.145 332,328 367,328 385,311.836 420,316.502 436,306 454.748,302 490,280.12 
	504,216.12 522.956,274.632 539,229 575.478,252 593,274.632 605,248 621.956,261 642,258 745.856,92 759,153.12 778,192 793,192 
	837,88.12 837,75 "/>
<linearGradient id="SVGID_2_" gradientUnits="userSpaceOnUse" x1="150.6137" y1="426.7592" x2="875.2842" y2="426.7592">
	<stop  offset="0.0054" style="stop-color:#04F3FF"/>
	<stop  offset="1" style="stop-color:#6097F7"/>
</linearGradient>
<polyline fill="none" stroke="url(#SVGID_2_)" stroke-width="15" stroke-miterlimit="10" points="150.956,434.579 251.129,430 
	310,432.29 369,424 411,429.29 493.978,424 647.54,424 710,419 754,426.79 825,419 875.284,419 "/>
<polyline fill="none" stroke="#000000" stroke-width="5" stroke-miterlimit="10" points="871.86,75.856 875.284,456 150.956,456 
	150.956,76.712 "/>
<line fill="none" stroke="#000000" stroke-width="5" stroke-miterlimit="10" x1="871.86" y1="75.856" x2="148.388" y2="75.856"/>
</svg>
